<svg width="40" height="40" viewBox="0 0 40 40" fill="none" xmlns="http://www.w3.org/2000/svg">
<path d="M36.6673 20.4166C36.6673 18.95 35.8173 17.7 34.5923 17.0833C34.8423 16.575 35.0007 16.0166 35.0007 15.4166C35.0007 13.4083 33.4173 11.7833 31.434 11.6833C31.7673 10.7583 31.8173 9.69165 31.0923 8.50831C30.7757 7.99165 30.3423 7.55831 29.8257 7.24165C28.6423 6.51665 27.5756 6.56665 26.6507 6.89998C26.5506 4.91665 24.9257 3.33331 22.9173 3.33331C22.2007 3.33331 21.534 3.54165 20.9673 3.89165C20.9256 3.91665 20.8757 3.94165 20.834 3.95831C20.5757 4.09998 20.284 4.16665 20.0007 4.16665C19.7173 4.16665 19.4257 4.09998 19.1673 3.95831C19.1257 3.94165 19.0757 3.91665 19.034 3.89165C18.4673 3.54165 17.8007 3.33331 17.084 3.33331C15.0757 3.33331 13.4507 4.91665 13.3507 6.89998C12.4257 6.56665 11.359 6.51665 10.1757 7.24165C9.65898 7.55831 9.22565 7.99165 8.90898 8.50831C8.18398 9.69165 8.23398 10.7583 8.56732 11.6833C6.58398 11.7833 5.00065 13.4083 5.00065 15.4166C5.00065 16.0166 5.15898 16.575 5.40898 17.0833C4.18398 17.7 3.33398 18.95 3.33398 20.4166C3.33398 21.6166 3.90898 22.675 4.78398 23.3583C4.40065 23.95 4.16732 24.6583 4.16732 25.4166C4.16732 26.775 4.89232 27.95 5.97565 28.6083C5.89232 28.925 5.83398 29.2416 5.83398 29.5833C5.83398 31.6583 7.50898 33.3333 9.58398 33.3333C9.85898 33.3333 10.1257 33.3 10.384 33.2416C11.1757 35.25 13.134 36.6666 15.4173 36.6666C16.7423 36.6666 17.9507 36.1916 18.8923 35.4C18.9757 35.325 19.0673 35.2666 19.1673 35.2166C19.4257 35.0666 19.709 35 20.0007 35C20.2923 35 20.5757 35.0666 20.834 35.2166C20.934 35.2666 21.0257 35.325 21.109 35.4C22.0506 36.1916 23.259 36.6666 24.584 36.6666C26.8673 36.6666 28.8257 35.25 29.6173 33.2416C29.8757 33.3 30.1423 33.3333 30.4173 33.3333C32.4923 33.3333 34.1673 31.6583 34.1673 29.5833C34.1673 29.2416 34.109 28.925 34.0257 28.6083C35.109 27.95 35.834 26.775 35.834 25.4166C35.834 24.6583 35.6007 23.95 35.2173 23.3583C36.0923 22.675 36.6673 21.6166 36.6673 20.4166Z" fill="#18B7E9"/>
<path d="M13.334 10H26.6673V11.6667H13.334V10ZM16.6673 30.8333H15.0006V27.5H8.33398V22.5H10.0007V25.8333H16.6673V30.8333Z" fill="#B5E4FF"/>
<path d="M13.3333 9.16669C12.8913 9.16669 12.4674 9.34228 12.1548 9.65484C11.8423 9.9674 11.6667 10.3913 11.6667 10.8334C11.6667 11.2754 11.8423 11.6993 12.1548 12.0119C12.4674 12.3244 12.8913 12.5 13.3333 12.5C13.7754 12.5 14.1993 12.3244 14.5118 12.0119C14.8244 11.6993 15 11.2754 15 10.8334C15 10.3913 14.8244 9.9674 14.5118 9.65484C14.1993 9.34228 13.7754 9.16669 13.3333 9.16669ZM9.16667 20.8334C8.72464 20.8334 8.30072 21.0089 7.98816 21.3215C7.6756 21.6341 7.5 22.058 7.5 22.5C7.5 22.942 7.6756 23.366 7.98816 23.6785C8.30072 23.9911 8.72464 24.1667 9.16667 24.1667C9.60869 24.1667 10.0326 23.9911 10.3452 23.6785C10.6577 23.366 10.8333 22.942 10.8333 22.5C10.8333 22.058 10.6577 21.6341 10.3452 21.3215C10.0326 21.0089 9.60869 20.8334 9.16667 20.8334ZM15.8333 29.1667C15.3913 29.1667 14.9674 29.3423 14.6548 29.6548C14.3423 29.9674 14.1667 30.3913 14.1667 30.8333C14.1667 31.2754 14.3423 31.6993 14.6548 32.0119C14.9674 32.3244 15.3913 32.5 15.8333 32.5C16.2754 32.5 16.6993 32.3244 17.0118 32.0119C17.3244 31.6993 17.5 31.2754 17.5 30.8333C17.5 30.3913 17.3244 29.9674 17.0118 29.6548C16.6993 29.3423 16.2754 29.1667 15.8333 29.1667Z" fill="#FFECA8"/>
<path d="M25.0007 30.8333H23.334V25.8333H30.0007V22.5H31.6673V27.5H25.0007V30.8333Z" fill="#B5E4FF"/>
<path d="M30.8333 20.8334C30.3913 20.8334 29.9674 21.0089 29.6548 21.3215C29.3423 21.6341 29.1667 22.058 29.1667 22.5C29.1667 22.942 29.3423 23.366 29.6548 23.6785C29.9674 23.9911 30.3913 24.1667 30.8333 24.1667C31.2754 24.1667 31.6993 23.9911 32.0118 23.6785C32.3244 23.366 32.5 22.942 32.5 22.5C32.5 22.058 32.3244 21.6341 32.0118 21.3215C31.6993 21.0089 31.2754 20.8334 30.8333 20.8334ZM24.1667 29.1667C23.7246 29.1667 23.3007 29.3423 22.9882 29.6548C22.6756 29.9674 22.5 30.3913 22.5 30.8333C22.5 31.2754 22.6756 31.6993 22.9882 32.0119C23.3007 32.3244 23.7246 32.5 24.1667 32.5C24.6087 32.5 25.0326 32.3244 25.3452 32.0119C25.6577 31.6993 25.8333 31.2754 25.8333 30.8333C25.8333 30.3913 25.6577 29.9674 25.3452 29.6548C25.0326 29.3423 24.6087 29.1667 24.1667 29.1667ZM25.8333 9.16669C25.3913 9.16669 24.9674 9.34228 24.6548 9.65484C24.3423 9.9674 24.1667 10.3913 24.1667 10.8334C24.1667 11.2754 24.3423 11.6993 24.6548 12.0119C24.9674 12.3244 25.3913 12.5 25.8333 12.5C26.2754 12.5 26.6993 12.3244 27.0118 12.0119C27.3244 11.6993 27.5 11.2754 27.5 10.8334C27.5 10.3913 27.3244 9.9674 27.0118 9.65484C26.6993 9.34228 26.2754 9.16669 25.8333 9.16669Z" fill="#FFECA8"/>
<path d="M20.8327 3.95831V35.2166C20.5744 35.0666 20.291 35 19.9994 35C19.7077 35 19.4243 35.0666 19.166 35.2166V3.95831C19.4243 4.09998 19.716 4.16665 19.9994 4.16665C20.2827 4.16665 20.5744 4.09998 20.8327 3.95831Z" fill="#1399C4"/>
<path d="M16.6673 21.6666H15.0006V17.5H10.834V15.8333H16.6673V21.6666Z" fill="#B5E4FF"/>
<path d="M15.8327 20C15.3907 20 14.9667 20.1756 14.6542 20.4882C14.3416 20.8007 14.166 21.2246 14.166 21.6667C14.166 22.1087 14.3416 22.5326 14.6542 22.8452C14.9667 23.1577 15.3907 23.3333 15.8327 23.3333C16.2747 23.3333 16.6986 23.1577 17.0112 22.8452C17.3238 22.5326 17.4993 22.1087 17.4993 21.6667C17.4993 21.2246 17.3238 20.8007 17.0112 20.4882C16.6986 20.1756 16.2747 20 15.8327 20ZM10.8327 15C10.3907 15 9.96673 15.1756 9.65417 15.4882C9.34161 15.8007 9.16602 16.2246 9.16602 16.6667C9.16602 17.1087 9.34161 17.5326 9.65417 17.8452C9.96673 18.1577 10.3907 18.3333 10.8327 18.3333C11.2747 18.3333 11.6986 18.1577 12.0112 17.8452C12.3238 17.5326 12.4993 17.1087 12.4993 16.6667C12.4993 16.2246 12.3238 15.8007 12.0112 15.4882C11.6986 15.1756 11.2747 15 10.8327 15Z" fill="#FFECA8"/>
<path d="M25.0007 21.6666H23.334V15.8333H29.1673V17.5H25.0007V21.6666Z" fill="#B5E4FF"/>
<path d="M24.1667 20C23.7246 20 23.3007 20.1756 22.9882 20.4882C22.6756 20.8007 22.5 21.2246 22.5 21.6667C22.5 22.1087 22.6756 22.5326 22.9882 22.8452C23.3007 23.1577 23.7246 23.3333 24.1667 23.3333C24.6087 23.3333 25.0326 23.1577 25.3452 22.8452C25.6577 22.5326 25.8333 22.1087 25.8333 21.6667C25.8333 21.2246 25.6577 20.8007 25.3452 20.4882C25.0326 20.1756 24.6087 20 24.1667 20ZM29.1667 15C28.7246 15 28.3007 15.1756 27.9882 15.4882C27.6756 15.8007 27.5 16.2246 27.5 16.6667C27.5 17.1087 27.6756 17.5326 27.9882 17.8452C28.3007 18.1577 28.7246 18.3333 29.1667 18.3333C29.6087 18.3333 30.0326 18.1577 30.3452 17.8452C30.6577 17.5326 30.8333 17.1087 30.8333 16.6667C30.8333 16.2246 30.6577 15.8007 30.3452 15.4882C30.0326 15.1756 29.6087 15 29.1667 15Z" fill="#FFECA8"/>
</svg>
