<svg width="40" height="40" viewBox="0 0 40 40" fill="none" xmlns="http://www.w3.org/2000/svg">
<path d="M25.834 5.83333L36.6673 7.23833L27.7473 15.8333L25.834 5.83333ZM14.1673 34.165L3.33398 32.7608L12.254 24.1667L14.1673 34.165ZM5.83398 14.1667L7.23898 3.33333L15.834 12.2533L5.83398 14.1667ZM34.1657 25.8333L32.7607 36.6667L24.1673 27.7467L34.1657 25.8333Z" fill="#9B5EFF"/>
<path d="M20.0007 33.3333C19.1482 33.3333 18.3165 33.245 17.509 33.0925L16.9307 36.32C17.9823 36.495 19.0348 36.5808 20.0007 36.5808C24.7365 36.5808 28.9473 34.5658 32.0173 31.4067L29.679 29.1533C27.249 31.7217 23.8165 33.3333 20.0007 33.3333ZM6.66732 20C6.66732 19.1742 6.75315 18.37 6.89648 17.585L3.42315 18.2475C3.33398 18.8608 3.33398 19.3892 3.33398 20.0025C3.33398 24.0392 4.73898 27.8975 7.37065 30.8783L9.89982 28.6883C7.88982 26.3533 6.66732 23.3225 6.66732 20ZM20.0007 6.66666C20.8532 6.66666 21.6848 6.755 22.4932 6.9075L23.0707 3.685C22.1048 3.425 21.0523 3.33583 20.0007 3.33583C15.2648 3.33583 11.054 5.35416 7.98398 8.51L10.3223 10.8483C12.7523 8.27833 16.1848 6.66666 20.0007 6.66666ZM32.8948 9.38666L30.274 11.5017C32.1848 13.8092 33.334 16.77 33.334 20C33.334 20.8275 33.2481 21.6333 33.104 22.4192L36.5782 21.7567C36.6673 21.1433 36.6673 20.6158 36.6673 20.0025C36.6673 16.1442 35.3515 12.3717 32.8948 9.38666Z" fill="#9B5EFF"/>
</svg>
