<svg width="24" height="24" viewBox="0 0 24 24" fill="none" xmlns="http://www.w3.org/2000/svg">
<path d="M19 3H5C3.897 3 3 3.8965 3 5V19C3 20.103 3.896 21 4.999 21H18.999C20.102 21 20.999 20.103 20.999 19L21 5C21 3.8965 20.103 3 19 3Z" fill="#B5E4FF"/>
<path d="M5.50012 14.5H9.50012V18.5H5.50012V14.5ZM14.5001 14.5H18.5001V18.5H14.5001V14.5ZM5.50012 5.5H9.50012V9.5H5.50012V5.5ZM14.5001 5.5H18.5001V9.5H14.5001V5.5Z" fill="#3F51B5"/>
<path d="M9.50012 7H11.5001V8H9.50012V7ZM12.5001 7H13.5001V8H12.5001V7ZM16.0001 9.5H17.0001V11.5H16.0001V9.5ZM16.0001 12.5H17.0001V13.5H16.0001V12.5ZM7.00012 12.5H8.00012V14.5H7.00012V12.5ZM7.00012 10.5H8.00012V11.5H7.00012V10.5ZM10.5001 16H11.5001V17H10.5001V16ZM12.5001 16H14.5001V17H12.5001V16Z" fill="#2196F3"/>
<path d="M19 3H5C3.897 3 3 3.8965 3 5V19C3 20.103 3.896 21 4.999 21H18.999C20.102 21 20.999 20.103 20.999 19L21 5C21 3.8965 20.103 3 19 3Z" fill="#B5E4FF"/>
<path d="M5.50012 14.5H9.50012V18.5H5.50012V14.5ZM14.5001 14.5H18.5001V18.5H14.5001V14.5ZM5.50012 5.5H9.50012V9.5H5.50012V5.5ZM14.5001 5.5H18.5001V9.5H14.5001V5.5Z" fill="#495FAB"/>
<path d="M9.50012 7H11.5001V8H9.50012V7ZM12.5001 7H13.5001V8H12.5001V7ZM16.0001 9.5H17.0001V11.5H16.0001V9.5ZM16.0001 12.5H17.0001V13.5H16.0001V12.5ZM7.00012 12.5H8.00012V14.5H7.00012V12.5ZM7.00012 10.5H8.00012V11.5H7.00012V10.5ZM10.5001 16H11.5001V17H10.5001V16ZM12.5001 16H14.5001V17H12.5001V16Z" fill="#495FAB"/>
</svg>
