<svg width="25" height="25" viewBox="0 0 25 25" fill="none" xmlns="http://www.w3.org/2000/svg">
<path d="M9.20605 19.96H8.70605C7.05605 19.96 5.70605 18.61 5.70605 16.96V13.46H6.70605V16.96C6.70605 18.06 7.60605 18.96 8.70605 18.96H9.20605V19.96Z" fill="#606B77"/>
<path d="M14.9561 2.96002C13.8289 2.96002 12.7479 3.40779 11.9509 4.20482C11.1538 5.00185 10.7061 6.08285 10.7061 7.21002C10.7061 8.33719 11.1538 9.4182 11.9509 10.2152C12.7479 11.0123 13.8289 11.46 14.9561 11.46C16.0832 11.46 17.1642 11.0123 17.9613 10.2152C18.7583 9.4182 19.2061 8.33719 19.2061 7.21002C19.2061 6.08285 18.7583 5.00185 17.9613 4.20482C17.1642 3.40779 16.0832 2.96002 14.9561 2.96002V2.96002Z" fill="#71D4FF"/>
<path d="M18.7061 7.91002C17.7778 7.91002 16.8876 8.27877 16.2312 8.93515C15.5748 9.59152 15.2061 10.4818 15.2061 11.41C15.2061 12.3383 15.5748 13.2285 16.2312 13.8849C16.8876 14.5413 17.7778 14.91 18.7061 14.91C19.6343 14.91 20.5245 14.5413 21.1809 13.8849C21.8373 13.2285 22.2061 12.3383 22.2061 11.41C22.2061 10.4818 21.8373 9.59152 21.1809 8.93515C20.5245 8.27877 19.6343 7.91002 18.7061 7.91002V7.91002ZM5.70605 7.96002C4.7778 7.96002 3.88756 8.32877 3.23118 8.98515C2.5748 9.64152 2.20605 10.5318 2.20605 11.46C2.20605 12.3883 2.5748 13.2785 3.23118 13.9349C3.88756 14.5913 4.7778 14.96 5.70605 14.96C6.63431 14.96 7.52455 14.5913 8.18093 13.9349C8.8373 13.2785 9.20605 12.3883 9.20605 11.46C9.20605 10.5318 8.8373 9.64152 8.18093 8.98515C7.52455 8.32877 6.63431 7.96002 5.70605 7.96002V7.96002Z" fill="#71D4FF"/>
<path d="M8.95605 4.46002C8.0941 4.46002 7.26745 4.80243 6.65796 5.41192C6.04846 6.02142 5.70605 6.84807 5.70605 7.71002C5.70605 8.57198 6.04846 9.39863 6.65796 10.0081C7.26745 10.6176 8.0941 10.96 8.95605 10.96C9.81801 10.96 10.6447 10.6176 11.2542 10.0081C11.8636 9.39863 12.2061 8.57198 12.2061 7.71002C12.2061 6.84807 11.8636 6.02142 11.2542 5.41192C10.6447 4.80243 9.81801 4.46002 8.95605 4.46002V4.46002Z" fill="#71D4FF"/>
<path d="M12.7061 6.91002C11.7778 6.91002 10.8876 7.27877 10.2312 7.93515C9.5748 8.59152 9.20605 9.48176 9.20605 10.41C9.20605 11.3383 9.5748 12.2285 10.2312 12.8849C10.8876 13.5413 11.7778 13.91 12.7061 13.91C13.6343 13.91 14.5245 13.5413 15.1809 12.8849C15.8373 12.2285 16.2061 11.3383 16.2061 10.41C16.2061 9.48176 15.8373 8.59152 15.1809 7.93515C14.5245 7.27877 13.6343 6.91002 12.7061 6.91002V6.91002Z" fill="#71D4FF"/>
<path d="M3.70605 12.96C3.70605 14.06 4.60605 14.96 5.70605 14.96H18.2061C19.3061 14.96 20.2061 14.06 20.2061 12.96V12.46C20.2061 11.36 19.3061 10.46 18.2061 10.46H5.70605C4.60605 10.46 3.70605 11.36 3.70605 12.46V12.96Z" fill="#71D4FF"/>
<path d="M14.2061 18.46H18.7061V17.46H14.2061V18.46ZM14.2061 21.46H18.7061V20.46H14.2061V21.46Z" fill="#606B77"/>
<path d="M14.7061 16.96H12.7061L11.2061 18.46V20.46L12.7061 21.96H14.7061V16.96Z" fill="#606B77"/>
<path d="M11.2061 18.46H9.20605V20.46H11.2061V18.46ZM16.2061 22.96H14.2061V15.96H16.2061V22.96Z" fill="#606B77"/>
</svg>
