<svg width="121" height="24" viewBox="0 0 121 24" fill="none" xmlns="http://www.w3.org/2000/svg">
<path d="M44.2474 16.1993C43.7524 16.8754 43.1016 17.4228 42.3094 17.8443C41.5173 18.2644 40.5555 18.4751 39.438 18.4751C38.4762 18.4751 37.5994 18.3125 36.7931 17.9858C35.9727 17.6604 35.2796 17.2035 34.6856 16.6165C34.1056 16.0295 33.6389 15.3308 33.3136 14.5188C32.9741 13.7069 32.8184 12.8144 32.8184 11.8427C32.8184 10.8582 32.9741 9.95998 33.3136 9.14807C33.653 8.33616 34.1198 7.64305 34.728 7.06736C35.3221 6.49308 36.0294 6.04473 36.8498 5.72506C37.6702 5.40539 38.5611 5.24414 39.5088 5.24414C39.9473 5.24414 40.3719 5.28655 40.8104 5.36859C41.2488 5.45204 41.673 5.57653 42.0691 5.74202C42.4793 5.90893 42.8471 6.1126 43.1724 6.35589C43.5119 6.59918 43.7946 6.88069 44.0351 7.20036L42.6489 8.26825C42.3377 7.84108 41.8993 7.48889 41.3335 7.21024C40.7819 6.93159 40.1736 6.79157 39.5088 6.79157C38.7733 6.79157 38.1228 6.92452 37.5287 7.19185C36.9487 7.45919 36.4394 7.82273 36.0292 8.28526C35.6191 8.74779 35.2938 9.28388 35.0675 9.89494C34.8412 10.506 34.728 11.1552 34.728 11.8427C34.728 12.5541 34.8412 13.2176 35.0533 13.8343C35.2797 14.451 35.5907 14.9871 36.0009 15.4439C36.4111 15.8994 36.9063 16.2587 37.5004 16.5189C38.0803 16.7806 38.7449 16.9107 39.4663 16.9107C40.1736 16.9107 40.8244 16.7679 41.4043 16.4836C41.9843 16.1993 42.4652 15.7848 42.8471 15.2388L44.2474 16.1993Z" fill="#080A0C"/>
<path d="M53.7091 13.918C53.7091 14.5701 53.596 15.1684 53.3697 15.713C53.1433 16.259 52.8181 16.73 52.4079 17.1275C51.9977 17.5249 51.5168 17.8333 50.9651 18.0525C50.3993 18.2718 49.8052 18.3807 49.1687 18.3807C48.5181 18.3807 47.9239 18.2718 47.3723 18.0525C46.8065 17.8333 46.3256 17.5249 45.9295 17.1275C45.5193 16.73 45.2082 16.259 44.9819 15.713C44.7415 15.1684 44.6283 14.5701 44.6283 13.918C44.6283 13.2659 44.7415 12.669 44.9819 12.1301C45.2082 11.5912 45.5193 11.1258 45.9295 10.734C46.3256 10.3436 46.8065 10.0381 47.3723 9.81883C47.9239 9.59959 48.5181 9.48926 49.1687 9.48926C49.8052 9.48926 50.3993 9.59959 50.9651 9.81883C51.5168 10.0381 51.9977 10.3436 52.4079 10.734C52.8181 11.1258 53.1433 11.5912 53.3697 12.1301C53.596 12.669 53.7091 13.2659 53.7091 13.918ZM51.9693 13.918C51.9693 13.5149 51.9129 13.1287 51.7856 12.761C51.6583 12.3946 51.4743 12.0707 51.248 11.7921C51.0075 11.5134 50.7106 11.2913 50.3712 11.1258C50.0175 10.9589 49.6213 10.8769 49.1687 10.8769C48.7161 10.8769 48.3199 10.9589 47.9663 11.1258C47.6126 11.2913 47.3158 11.5134 47.0753 11.7921C46.849 12.0707 46.6649 12.3946 46.5376 12.761C46.4103 13.1287 46.3539 13.5149 46.3539 13.918C46.3539 14.3211 46.4103 14.7059 46.5376 15.0736C46.6649 15.4414 46.849 15.7667 47.0753 16.051C47.3158 16.3353 47.6126 16.5617 47.9663 16.7271C48.3199 16.8926 48.7161 16.9761 49.1687 16.9761C49.6213 16.9761 50.0175 16.8926 50.3712 16.7271C50.7106 16.5617 51.0075 16.3353 51.248 16.051C51.4743 15.7667 51.6583 15.4414 51.7856 15.0736C51.9129 14.7059 51.9693 14.3211 51.9693 13.918Z" fill="#080A0C"/>
<path d="M56.8573 11.1074C57.0695 10.6576 57.4089 10.2743 57.8757 9.96029C58.3425 9.64628 58.9085 9.48926 59.545 9.48926C60.1108 9.48926 60.6198 9.6194 61.0866 9.88108C61.5392 10.1413 61.8929 10.5742 62.1616 11.1796C62.4445 10.6336 62.8407 10.2163 63.3499 9.92494C63.8591 9.63497 64.4107 9.48926 65.0189 9.48926C65.5705 9.48926 66.0373 9.58121 66.4192 9.76509C66.8153 9.94897 67.1405 10.1951 67.4093 10.5035C67.6639 10.8118 67.8621 11.1725 67.9753 11.5884C68.1026 12.0028 68.1732 12.4469 68.1732 12.9222V18.1501H66.49V13.4724C66.49 13.1287 66.4616 12.8034 66.4051 12.495C66.3485 12.1867 66.2495 11.9137 66.1081 11.6775C65.9666 11.4398 65.7687 11.2503 65.5424 11.1074C65.302 10.966 64.9906 10.8939 64.6228 10.8939C64.255 10.8939 63.9298 10.9745 63.6469 11.1343C63.3781 11.2942 63.1519 11.5021 62.9821 11.7567C62.8124 12.0113 62.6851 12.2998 62.6144 12.6195C62.5295 12.9392 62.4869 13.2659 62.4869 13.5969V18.1501H60.8179V13.1344C60.8179 12.8034 60.7896 12.5007 60.733 12.2277C60.6764 11.9547 60.5775 11.7213 60.436 11.5261C60.2946 11.3295 60.1108 11.1753 59.8845 11.0636C59.6582 10.9504 59.3752 10.8939 59.0498 10.8939C58.4275 10.8939 57.9181 11.1456 57.5079 11.6506C57.0977 12.1542 56.8857 12.8275 56.8857 13.6691V18.1501H55.2167V11.5346C55.2167 11.3097 55.2167 11.0183 55.2025 10.6633C55.1884 10.3069 55.1742 9.99281 55.1459 9.72123H56.7303C56.7585 9.93341 56.7724 10.1739 56.7865 10.4412C56.8007 10.7071 56.8007 10.9292 56.8007 11.1074H56.8573Z" fill="#080A0C"/>
<path d="M71.8399 11.1074C72.0521 10.6576 72.3915 10.2743 72.8583 9.96029C73.325 9.64628 73.8766 9.48926 74.5131 9.48926C75.093 9.48926 75.6024 9.6194 76.055 9.88108C76.5076 10.1413 76.8754 10.5742 77.13 11.1796C77.4129 10.6336 77.8091 10.2163 78.3183 9.92494C78.8417 9.63497 79.3932 9.48926 80.0014 9.48926C80.5389 9.48926 81.0057 9.58121 81.4018 9.76509C81.7978 9.94897 82.1231 10.1951 82.3777 10.5035C82.6464 10.8118 82.8302 11.1725 82.9575 11.5884C83.0848 12.0028 83.1415 12.4469 83.1415 12.9222V18.1501H81.4726V13.4724C81.4726 13.1287 81.4442 12.8034 81.3876 12.495C81.3169 12.1867 81.2179 11.9137 81.0765 11.6775C80.935 11.4398 80.7509 11.2503 80.5105 11.1074C80.27 10.966 79.9731 10.8939 79.6053 10.8939C79.2234 10.8939 78.8982 10.9745 78.6294 11.1343C78.3465 11.2942 78.1344 11.5021 77.9647 11.7567C77.7808 12.0113 77.6676 12.2998 77.5827 12.6195C77.512 12.9392 77.4695 13.2659 77.4695 13.5969V18.1501H75.8005V13.1344C75.8005 12.8034 75.7721 12.5007 75.7155 12.2277C75.6448 11.9547 75.5458 11.7213 75.4044 11.5261C75.2629 11.3295 75.0789 11.1753 74.8526 11.0636C74.6262 10.9504 74.3577 10.8939 74.0182 10.8939C73.41 10.8939 72.8865 11.1456 72.4763 11.6506C72.0661 12.1542 71.8682 12.8275 71.8682 13.6691V18.1501H70.1989V11.5346C70.1989 11.3097 70.1992 11.0183 70.1851 10.6633C70.1709 10.3069 70.1567 9.99281 70.1284 9.72123H71.7125C71.7266 9.93341 71.7549 10.1739 71.7691 10.4412C71.7691 10.7071 71.7832 10.9292 71.7832 11.1074H71.8399Z" fill="#080A0C"/>
<path d="M91.0639 18.153C91.0498 17.9394 91.0356 17.699 91.0214 17.433C91.0073 17.1657 90.9934 16.9436 90.9934 16.7654H90.9651C90.753 17.2166 90.3852 17.5985 89.8901 17.9125C89.3809 18.2266 88.829 18.3836 88.2066 18.3836C87.655 18.3836 87.1882 18.2945 86.7921 18.1177C86.3961 17.9394 86.0708 17.6933 85.8162 17.3793C85.5616 17.0653 85.3779 16.7003 85.2506 16.2859C85.1233 15.87 85.0524 15.4259 85.0524 14.9521V9.72412H86.7359V14.382C86.7359 14.7271 86.7639 15.0553 86.8063 15.3693C86.8629 15.6833 86.9622 15.9592 87.1036 16.1968C87.2451 16.433 87.443 16.6239 87.6976 16.7654C87.9381 16.9083 88.2633 16.979 88.6452 16.979C89.3241 16.979 89.876 16.7272 90.2862 16.2237C90.6964 15.7201 90.9085 15.0468 90.9085 14.2052V9.72412H92.5775V16.3382C92.5775 16.5645 92.5916 16.8545 92.5916 17.2096C92.6058 17.566 92.6341 17.88 92.6483 18.153H91.0639Z" fill="#080A0C"/>
<path d="M96.1999 9.72123C96.2281 9.93341 96.2423 10.1739 96.2565 10.4412C96.2706 10.7071 96.2848 10.9292 96.2848 11.1074H96.3273C96.4404 10.8825 96.5816 10.6718 96.7655 10.4766C96.9494 10.2814 97.1615 10.1088 97.402 9.96029C97.6424 9.81318 97.8971 9.6972 98.18 9.61375C98.4629 9.5303 98.7601 9.48926 99.0713 9.48926C99.6088 9.48926 100.09 9.58121 100.472 9.76509C100.868 9.94897 101.193 10.1951 101.448 10.5035C101.716 10.8118 101.9 11.1725 102.027 11.5884C102.155 12.0028 102.211 12.4469 102.211 12.9222V18.1501H100.542V13.4724C100.542 13.1287 100.514 12.8034 100.472 12.495C100.415 12.1867 100.316 11.9137 100.175 11.6775C100.033 11.4398 99.8349 11.2503 99.5803 11.1074C99.3398 10.966 99.0146 10.8939 98.6186 10.8939C97.9679 10.8939 97.4164 11.1456 96.9921 11.6506C96.5819 12.1542 96.3694 12.8275 96.3694 13.6691V18.1501H94.7004V11.5346C94.7004 11.3097 94.6863 11.0183 94.6721 10.6633C94.6721 10.3069 94.6438 9.99281 94.6296 9.72123H96.1999Z" fill="#080A0C"/>
<path d="M105.909 18.1516H104.24V9.7227H105.909V18.1516ZM106.193 6.68158C106.193 6.98994 106.079 7.24456 105.867 7.44541C105.641 7.64768 105.386 7.7481 105.075 7.7481C104.764 7.7481 104.509 7.64484 104.297 7.43691C104.085 7.22898 103.972 6.97721 103.972 6.68158C103.972 6.37323 104.085 6.11579 104.297 5.90787C104.509 5.69994 104.764 5.59668 105.075 5.59668C105.386 5.59668 105.641 5.69994 105.867 5.90787C106.079 6.11579 106.193 6.37323 106.193 6.68158Z" fill="#080A0C"/>
<path d="M112.191 11.0888H109.942V15.4807C109.942 15.9899 110.041 16.3549 110.225 16.5741C110.423 16.7933 110.72 16.9037 111.13 16.9037C111.286 16.9037 111.455 16.8853 111.625 16.8499C111.809 16.8146 111.965 16.7608 112.106 16.6901L112.163 18.0593C111.965 18.13 111.738 18.1866 111.498 18.2276C111.258 18.2701 111.003 18.2899 110.748 18.2899C109.942 18.2899 109.348 18.0706 108.924 17.6321C108.499 17.1936 108.287 16.5359 108.287 15.6589V11.0888H106.674V9.71953H108.287V7.30078H109.942V9.71953H112.191V11.0888Z" fill="#080A0C"/>
<path d="M116.329 16.3387H116.372L118.691 9.72461H120.473L116.386 20.1451C116.244 20.5001 116.089 20.8184 115.919 21.0956C115.763 21.3743 115.565 21.6119 115.339 21.8071C115.113 22.0037 114.844 22.1551 114.547 22.2611C114.236 22.3672 113.882 22.421 113.472 22.421C113.288 22.421 113.104 22.4125 112.92 22.3941C112.736 22.3771 112.552 22.3446 112.369 22.2965L112.524 20.8212C112.807 20.916 113.09 20.9626 113.359 20.9626C113.797 20.9626 114.123 20.841 114.335 20.5977C114.547 20.3558 114.745 20.0079 114.929 19.5581L115.466 18.1535L111.845 9.72461H113.712L116.329 16.3387Z" fill="#080A0C"/>
<path fill-rule="evenodd" clip-rule="evenodd" d="M20.6559 19.4775C17.0384 23.5638 11.0432 24.537 6.31778 21.8088C1.59002 19.0792 -0.562357 13.402 1.1654 8.2247L20.6559 19.4775Z" fill="#FFA0B5"/>
<path fill-rule="evenodd" clip-rule="evenodd" d="M22.9474 8.22607C24.6774 13.402 22.5227 19.0806 17.7972 21.8089C13.0695 24.5384 7.07667 23.5638 3.4569 19.4789L22.9474 8.22607Z" fill="#FFA0B5"/>
<path fill-rule="evenodd" clip-rule="evenodd" d="M12.0371 14.5127L20.6341 19.476C20.2191 19.9443 19.7731 20.3715 19.3015 20.7571C18.8291 21.1424 18.3212 21.494 17.7795 21.8067C17.3009 22.0831 16.8089 22.3213 16.3072 22.5229C14.9513 23.0652 13.5038 23.3438 12.0463 23.3457H12.0371H12.0278C10.5707 23.3438 9.12287 23.0652 7.76691 22.5229C7.26528 22.3213 6.77328 22.0831 6.29462 21.8067C5.75297 21.494 5.24505 21.1424 4.77268 20.7571C4.30106 20.3715 3.855 19.9443 3.44043 19.476L12.0371 14.5127Z" fill="#FF2052"/>
<path fill-rule="evenodd" clip-rule="evenodd" d="M12.0642 0C18.6073 0 23.9196 5.31235 23.9196 11.8554C23.9196 18.3984 18.6073 23.7108 12.0642 23.7108C5.52122 23.7108 0.208862 18.3984 0.208862 11.8554C0.208862 5.31235 5.52122 0 12.0642 0ZM12.0642 1.18554C17.9532 1.18554 22.7341 5.96646 22.7341 11.8554C22.7341 17.7443 17.9532 22.5252 12.0642 22.5252C6.17533 22.5252 1.39439 17.7443 1.39439 11.8554C1.39439 5.96646 6.17533 1.18554 12.0642 1.18554Z" fill="#FF2052"/>
</svg>
