<svg width="25" height="25" viewBox="0 0 25 25" fill="none" xmlns="http://www.w3.org/2000/svg">
<path d="M20.8237 22.4644H4.82373C4.54773 22.4644 4.32373 22.2404 4.32373 21.9644V20.4644H21.3237V21.9644C21.3237 22.2404 21.0997 22.4644 20.8237 22.4644Z" fill="#D91B46"/>
<path d="M21.3237 20.4644H4.32373V4.46445C4.32373 3.91195 4.77123 3.46445 5.32373 3.46445H20.3237C20.8762 3.46445 21.3237 3.91195 21.3237 4.46445V20.4644Z" fill="#FF2052"/>
<path d="M16.3237 7.46445C16.876 7.46445 17.3237 7.01673 17.3237 6.46445C17.3237 5.91216 16.876 5.46445 16.3237 5.46445C15.7714 5.46445 15.3237 5.91216 15.3237 6.46445C15.3237 7.01673 15.7714 7.46445 16.3237 7.46445Z" fill="#184F85"/>
<path d="M9.32373 7.46445C9.87601 7.46445 10.3237 7.01673 10.3237 6.46445C10.3237 5.91216 9.87601 5.46445 9.32373 5.46445C8.77145 5.46445 8.32373 5.91216 8.32373 6.46445C8.32373 7.01673 8.77145 7.46445 9.32373 7.46445Z" fill="#184F85"/>
<path opacity="0.05" d="M12.8237 12.9644C10.3427 12.9644 8.32373 10.9454 8.32373 8.46445V6.46445C8.32373 5.91245 8.77173 5.46445 9.32373 5.46445C9.87573 5.46445 10.3237 5.91245 10.3237 6.46445V8.46445C10.3237 9.84295 11.4452 10.9644 12.8237 10.9644C14.2022 10.9644 15.3237 9.84295 15.3237 8.46445V6.46445C15.3237 5.91245 15.7717 5.46445 16.3237 5.46445C16.8757 5.46445 17.3237 5.91245 17.3237 6.46445V8.46445C17.3237 10.9454 15.3047 12.9644 12.8237 12.9644Z" fill="black"/>
<path d="M12.8237 12.4644C10.4802 12.4644 8.57373 10.5579 8.57373 8.21445V6.46445C8.57373 6.05045 8.90973 5.71445 9.32373 5.71445C9.73773 5.71445 10.0737 6.05045 10.0737 6.46445V8.21445C10.0737 9.73095 11.3072 10.9644 12.8237 10.9644C14.3402 10.9644 15.5737 9.73095 15.5737 8.21445V6.46445C15.5737 6.05045 15.9097 5.71445 16.3237 5.71445C16.7377 5.71445 17.0737 6.05045 17.0737 6.46445V8.21445C17.0737 10.5579 15.1672 12.4644 12.8237 12.4644Z" fill="white"/>
</svg>
