<svg width="40" height="40" viewBox="0 0 40 40" fill="none" xmlns="http://www.w3.org/2000/svg">
<path d="M2.51367 16.4342L9.3395 31.6392L36.6462 19.3808L29.8203 4.17584L2.51367 16.4342Z" fill="#D0FBF9"/>
<path d="M2.51367 16.4342L9.3395 31.6392L36.6462 19.3808L29.8203 4.17584L2.51367 16.4342ZM10.1737 29.4375L4.71284 17.2733L28.9853 6.37751L34.4462 18.5417L10.1737 29.4375Z" fill="#09C3B7"/>
<path d="M27.2401 12.6452C26.8376 12.8259 26.5236 13.1594 26.367 13.5723C26.2105 13.9852 26.2243 14.4437 26.4053 14.8469C26.5864 15.2502 26.9199 15.5651 27.3324 15.7225C27.745 15.8799 28.2029 15.8668 28.6054 15.6861C29.0078 15.5054 29.3218 15.1719 29.4784 14.759C29.6349 14.3461 29.6212 13.8876 29.4401 13.4844C29.2591 13.0811 28.9256 12.7662 28.513 12.6088C28.1004 12.4514 27.6425 12.4645 27.2401 12.6452Z" fill="#0ACFC3"/>
<path d="M17.5294 13.3469C16.3224 13.8887 15.3806 14.8888 14.9112 16.1274C14.4417 17.366 14.4831 18.7414 15.0261 19.9512C15.5692 21.161 16.5695 22.106 17.8069 22.5783C19.0444 23.0507 20.4177 23.0116 21.6246 22.4699C22.8316 21.9281 23.7734 20.9279 24.2428 19.6893C24.7123 18.4508 24.6709 17.0753 24.1278 15.8655C23.5848 14.6557 22.5845 13.7107 21.347 13.2384C20.1096 12.766 18.7363 12.8051 17.5294 13.3469Z" fill="#0ACFC3"/>
<path d="M4.40973 15.5832C3.90687 15.8089 3.51448 16.2257 3.3189 16.7417C3.12333 17.2578 3.14057 17.8309 3.36685 18.3349C3.59313 18.839 4.0099 19.2328 4.52548 19.4296C5.04106 19.6264 5.61322 19.6102 6.11609 19.3844C6.61895 19.1587 7.01134 18.742 7.20692 18.2259C7.40249 17.7099 7.38525 17.1368 7.15897 16.6327C6.9327 16.1286 6.51592 15.7349 6.00034 15.538C5.48476 15.3412 4.9126 15.3575 4.40973 15.5832Z" fill="#09C2B7"/>
<path d="M27.9234 5.02881C27.4205 5.25455 27.0282 5.67128 26.8326 6.18733C26.637 6.70339 26.6542 7.27649 26.8805 7.78057C27.1068 8.28464 27.5236 8.6784 28.0392 8.87522C28.5547 9.07204 29.1269 9.05579 29.6298 8.83006C30.1326 8.60432 30.525 8.18759 30.7206 7.67154C30.9162 7.15549 30.8989 6.58238 30.6726 6.07831C30.4464 5.57423 30.0296 5.18047 29.514 4.98365C28.9984 4.78684 28.4263 4.80308 27.9234 5.02881Z" fill="#09C2B7"/>
<path d="M33.0425 16.4315C32.5397 16.6572 32.1473 17.0739 31.9517 17.59C31.7561 18.106 31.7734 18.6791 31.9997 19.1832C32.2259 19.6873 32.6427 20.0811 33.1583 20.2779C33.6739 20.4747 34.246 20.4584 34.7489 20.2327C35.2518 20.007 35.6442 19.5902 35.8397 19.0742C36.0353 18.5581 36.0181 17.985 35.7918 17.481C35.5655 16.9769 35.1487 16.5831 34.6332 16.3863C34.1176 16.1895 33.5454 16.2057 33.0425 16.4315Z" fill="#09C2B7"/>
<path d="M6.66602 19.1667H36.666V35.8334H6.66602V19.1667Z" fill="#D0FBF9"/>
<path d="M6.66602 19.1667V35.8334H36.666V19.1667H6.66602ZM8.33268 34.1667V20.8334H34.9994V34.1667H8.33268Z" fill="#0ACFC3"/>
<path d="M12.5 25.8333C12.058 25.8333 11.634 26.0089 11.3215 26.3215C11.0089 26.634 10.8333 27.058 10.8333 27.5C10.8333 27.942 11.0089 28.366 11.3215 28.6785C11.634 28.9911 12.058 29.1667 12.5 29.1667C12.942 29.1667 13.366 28.9911 13.6785 28.6785C13.9911 28.366 14.1667 27.942 14.1667 27.5C14.1667 27.058 13.9911 26.634 13.6785 26.3215C13.366 26.0089 12.942 25.8333 12.5 25.8333ZM30.8333 25.8333C30.3913 25.8333 29.9674 26.0089 29.6548 26.3215C29.3423 26.634 29.1667 27.058 29.1667 27.5C29.1667 27.942 29.3423 28.366 29.6548 28.6785C29.9674 28.9911 30.3913 29.1667 30.8333 29.1667C31.2754 29.1667 31.6993 28.9911 32.0118 28.6785C32.3244 28.366 32.5 27.942 32.5 27.5C32.5 27.058 32.3244 26.634 32.0118 26.3215C31.6993 26.0089 31.2754 25.8333 30.8333 25.8333ZM21.6667 22.5C20.3406 22.5 19.0688 23.0268 18.1311 23.9645C17.1934 24.9021 16.6667 26.1739 16.6667 27.5C16.6667 28.8261 17.1934 30.0979 18.1311 31.0355C19.0688 31.9732 20.3406 32.5 21.6667 32.5C22.9927 32.5 24.2645 31.9732 25.2022 31.0355C26.1399 30.0979 26.6667 28.8261 26.6667 27.5C26.6667 26.1739 26.1399 24.9021 25.2022 23.9645C24.2645 23.0268 22.9927 22.5 21.6667 22.5ZM35.8333 32.0925C35.4842 31.8283 35.0542 31.6667 34.5833 31.6667C33.4325 31.6667 32.5 32.5992 32.5 33.75C32.5 34.2217 32.6625 34.6517 32.9267 35.0008H35.8333V32.0925ZM8.75 31.6658C8.27917 31.6658 7.84917 31.8283 7.5 32.0917V35H10.4067C10.6708 34.6508 10.8333 34.2208 10.8333 33.7492C10.8333 32.5983 9.90083 31.6658 8.75 31.6658ZM7.5 22.9075C7.84917 23.1708 8.27917 23.3333 8.75 23.3333C9.90083 23.3333 10.8333 22.4008 10.8333 21.25C10.8333 20.7792 10.6708 20.3492 10.4075 20H7.5V22.9075ZM34.5833 23.3333C35.0542 23.3333 35.4842 23.1708 35.8333 22.9075V20H32.9258C32.6625 20.3492 32.5 20.7792 32.5 21.25C32.5 22.4008 33.4325 23.3333 34.5833 23.3333Z" fill="#0ACFC3"/>
</svg>
