<svg width="25" height="24" viewBox="0 0 25 24" fill="none" xmlns="http://www.w3.org/2000/svg">
<path d="M12.7905 18C16.1042 18 18.7905 15.3137 18.7905 12C18.7905 8.68629 16.1042 6 12.7905 6C9.47682 6 6.79053 8.68629 6.79053 12C6.79053 15.3137 9.47682 18 12.7905 18Z" fill="white"/>
<path d="M22.494 9.62151C21.2995 9.60701 20.143 8.98451 19.5025 7.87501C18.886 6.80701 18.8985 5.55051 19.4215 4.52851C18.359 3.58501 17.1005 2.85901 15.7065 2.43451C15.079 3.37801 14.008 4.00001 12.7905 4.00001C11.573 4.00001 10.502 3.37801 9.87503 2.43451C8.48103 2.85901 7.22253 3.58501 6.16003 4.52851C6.68303 5.55051 6.69553 6.80701 6.07903 7.87501C5.43853 8.98451 4.28203 9.60701 3.08753 9.62151C2.90053 10.385 2.79053 11.179 2.79053 12C2.79053 12.642 2.85703 13.2675 2.97253 13.876C4.20703 13.8505 5.41803 14.48 6.07903 15.625C6.76303 16.81 6.67253 18.227 5.96903 19.2975C7.01003 20.271 8.25553 21.0255 9.63903 21.485C10.204 20.312 11.401 19.5 12.7905 19.5C14.18 19.5 15.377 20.312 15.942 21.4855C17.3255 21.026 18.571 20.2715 19.612 19.298C18.9085 18.2275 18.818 16.8105 19.502 15.6255C20.163 14.4805 21.3735 13.851 22.6085 13.8765C22.724 13.2675 22.7905 12.642 22.7905 12C22.7905 11.179 22.6805 10.385 22.494 9.62151ZM18.7905 12C18.7905 12.813 18.627 13.588 18.334 14.295L15.751 12.465C15.7745 12.313 15.7905 12.1585 15.7905 12C15.7905 10.6945 14.955 9.58651 13.7905 9.17451V6.09001C16.627 6.56701 18.7905 9.02801 18.7905 12ZM11.7905 6.09001V9.17451C10.626 9.58701 9.79053 10.6945 9.79053 12C9.79053 12.1585 9.80653 12.313 9.83003 12.465L7.24703 14.295C6.95403 13.588 6.79053 12.813 6.79053 12C6.79053 9.02801 8.95403 6.56701 11.7905 6.09001ZM12.7905 18C11.01 18 9.41553 17.22 8.31653 15.9885L10.793 14.234C11.3235 14.709 12.0225 15 12.7905 15C13.5585 15 14.2575 14.709 14.788 14.234L17.2645 15.9885C16.1655 17.22 14.571 18 12.7905 18Z" fill="#00A3FF"/>
<path d="M18.7905 12C18.7905 15.3132 16.1037 18 12.7905 18C9.47733 18 6.79053 15.3132 6.79053 12C6.79053 8.6868 9.47733 6 12.7905 6C16.1037 6 18.7905 8.6868 18.7905 12Z" fill="#D0FBF9"/>
<path fill-rule="evenodd" clip-rule="evenodd" d="M12.0704 8.7194V8.39996C12.0704 8.13596 12.2864 7.91996 12.5504 7.91996C12.8144 7.91996 13.0304 8.13596 13.0304 8.39996V8.66804C13.9841 8.81846 14.7104 9.5557 14.7104 10.44C14.7104 10.7714 14.4418 11.04 14.1104 11.04C13.7789 11.04 13.5104 10.7714 13.5104 10.44C13.5104 10.1148 13.1257 9.83998 12.6704 9.83998C12.2151 9.83998 11.8304 10.1148 11.8304 10.44C11.8304 10.9085 12.1457 11.0995 12.9205 11.4547C13.6757 11.8008 14.7104 12.275 14.7104 13.56C14.7104 14.4443 13.9841 15.1815 13.0304 15.3319V15.6C13.0304 15.864 12.8144 16.08 12.5504 16.08C12.2864 16.08 12.0704 15.864 12.0704 15.6V15.2806C11.2374 15.054 10.6304 14.3684 10.6304 13.56C10.6304 13.2285 10.8989 12.96 11.2304 12.96C11.5618 12.96 11.8304 13.2285 11.8304 13.56C11.8304 13.8852 12.2151 14.16 12.6704 14.16C13.1257 14.16 13.5104 13.8852 13.5104 13.56C13.5104 13.0915 13.195 12.9005 12.4203 12.5453C11.665 12.1992 10.6304 11.7249 10.6304 10.44C10.6304 9.63154 11.2374 8.94599 12.0704 8.7194Z" fill="#00A3FF"/>
</svg>
