<svg width="25" height="25" viewBox="0 0 25 25" fill="none" xmlns="http://www.w3.org/2000/svg">
<path d="M12.0186 16.9604C15.8492 16.9604 17.4117 18.0944 18.0449 18.945C18.2476 19.2258 18.5133 19.4552 18.8206 19.6147C19.128 19.7742 19.4685 19.8595 19.8147 19.8636H19.8543C20.4283 19.8636 20.9788 19.6356 21.3846 19.2297C21.7905 18.8238 22.0186 18.2733 22.0186 17.6993V14.3797C22.0186 14.3797 21.0508 5.02489 17.825 5.02489C14.5992 5.02489 14.5992 6.63779 12.0186 6.63779C9.43791 6.63779 9.43791 5.02489 6.2121 5.02489C2.9863 5.02489 2.01855 14.3797 2.01855 14.3797V17.6993C2.01855 18.2733 2.24658 18.8238 2.65246 19.2297C3.05834 19.6356 3.60884 19.8636 4.18284 19.8636H4.22236C4.56864 19.8595 4.90912 19.7742 5.21649 19.6147C5.52386 19.4552 5.78954 19.2258 5.99222 18.945C6.62541 18.0944 8.18791 16.9604 12.0186 16.9604Z" fill="#606B77"/>
<path d="M10.0828 10.5088H8.14733V8.57327H6.21185V10.5088H4.27637V12.4442H6.21185V14.3797H8.14733V12.4442H10.0828V10.5088Z" fill="#E7EBEE"/>
<path d="M16.5341 10.1862C17.0686 10.1862 17.5019 9.75291 17.5019 9.21844C17.5019 8.68397 17.0686 8.2507 16.5341 8.2507C15.9997 8.2507 15.5664 8.68397 15.5664 9.21844C15.5664 9.75291 15.9997 10.1862 16.5341 10.1862Z" fill="#A8E0FF"/>
<path d="M16.5341 14.7023C17.0686 14.7023 17.5019 14.269 17.5019 13.7346C17.5019 13.2001 17.0686 12.7668 16.5341 12.7668C15.9997 12.7668 15.5664 13.2001 15.5664 13.7346C15.5664 14.269 15.9997 14.7023 16.5341 14.7023Z" fill="#FCEA81"/>
<path d="M18.7929 12.4443C19.3274 12.4443 19.7607 12.011 19.7607 11.4765C19.7607 10.942 19.3274 10.5088 18.7929 10.5088C18.2585 10.5088 17.8252 10.942 17.8252 11.4765C17.8252 12.011 18.2585 12.4443 18.7929 12.4443Z" fill="#FF476F"/>
<path d="M14.2763 12.4443C14.8108 12.4443 15.2441 12.011 15.2441 11.4765C15.2441 10.942 14.8108 10.5088 14.2763 10.5088C13.7419 10.5088 13.3086 10.942 13.3086 11.4765C13.3086 12.011 13.7419 12.4443 14.2763 12.4443Z" fill="#95C590"/>
</svg>
