<svg width="110" height="41" viewBox="0 0 110 41" fill="none" xmlns="http://www.w3.org/2000/svg">
<rect x="0.746094" y="0.484375" width="109.117" height="40.1429" rx="4" fill="white"/>
<path d="M49.1792 25.2076C48.2512 25.2076 47.4298 24.9943 46.7152 24.5676C46.0112 24.1303 45.4565 23.5063 45.0512 22.6956C44.6458 21.885 44.4432 20.909 44.4432 19.7676C44.4432 18.925 44.5605 18.1676 44.7952 17.4956C45.0405 16.8236 45.3765 16.253 45.8032 15.7836C46.2405 15.3036 46.7525 14.941 47.3392 14.6956C47.9258 14.4503 48.5658 14.3276 49.2592 14.3276C49.9845 14.3276 50.5925 14.461 51.0832 14.7276C51.5845 14.9943 51.9845 15.293 52.2832 15.6236L51.5472 16.4556C51.2912 16.1783 50.9818 15.949 50.6192 15.7676C50.2672 15.5863 49.8245 15.4956 49.2912 15.4956C48.5872 15.4956 47.9738 15.6716 47.4512 16.0236C46.9285 16.365 46.5232 16.8503 46.2352 17.4796C45.9578 18.109 45.8192 18.861 45.8192 19.7356C45.8192 20.621 45.9525 21.3836 46.2192 22.0236C46.4965 22.6636 46.8912 23.1596 47.4032 23.5116C47.9258 23.8636 48.5605 24.0396 49.3072 24.0396C49.6805 24.0396 50.0378 23.9863 50.3792 23.8796C50.7205 23.7623 50.9925 23.6076 51.1952 23.4156V20.6796H48.9712V19.5756H52.4112V23.9916C52.0805 24.3436 51.6325 24.637 51.0672 24.8716C50.5125 25.0956 49.8832 25.2076 49.1792 25.2076ZM57.8222 25.2076C57.1928 25.2076 56.6008 25.0476 56.0462 24.7276C55.5022 24.4076 55.0595 23.9436 54.7182 23.3356C54.3875 22.7276 54.2222 21.997 54.2222 21.1436C54.2222 20.269 54.3875 19.5276 54.7182 18.9196C55.0595 18.3116 55.5022 17.8476 56.0462 17.5276C56.6008 17.2076 57.1928 17.0476 57.8222 17.0476C58.4622 17.0476 59.0542 17.2076 59.5982 17.5276C60.1422 17.8476 60.5795 18.3116 60.9102 18.9196C61.2515 19.5276 61.4222 20.269 61.4222 21.1436C61.4222 21.997 61.2515 22.7276 60.9102 23.3356C60.5795 23.9436 60.1422 24.4076 59.5982 24.7276C59.0542 25.0476 58.4622 25.2076 57.8222 25.2076ZM57.8222 24.1196C58.2702 24.1196 58.6648 23.997 59.0062 23.7516C59.3475 23.4956 59.6088 23.1436 59.7902 22.6956C59.9715 22.2476 60.0622 21.7303 60.0622 21.1436C60.0622 20.5463 59.9715 20.0236 59.7902 19.5756C59.6088 19.117 59.3475 18.765 59.0062 18.5196C58.6648 18.2636 58.2702 18.1356 57.8222 18.1356C57.3742 18.1356 56.9795 18.2636 56.6382 18.5196C56.3075 18.765 56.0462 19.117 55.8542 19.5756C55.6728 20.0236 55.5822 20.5463 55.5822 21.1436C55.5822 21.7303 55.6728 22.2476 55.8542 22.6956C56.0462 23.1436 56.3075 23.4956 56.6382 23.7516C56.9795 23.997 57.3742 24.1196 57.8222 24.1196ZM66.494 25.2076C65.8647 25.2076 65.2727 25.0476 64.718 24.7276C64.174 24.4076 63.7314 23.9436 63.39 23.3356C63.0594 22.7276 62.894 21.997 62.894 21.1436C62.894 20.269 63.0594 19.5276 63.39 18.9196C63.7314 18.3116 64.174 17.8476 64.718 17.5276C65.2727 17.2076 65.8647 17.0476 66.494 17.0476C67.134 17.0476 67.726 17.2076 68.27 17.5276C68.814 17.8476 69.2514 18.3116 69.582 18.9196C69.9234 19.5276 70.094 20.269 70.094 21.1436C70.094 21.997 69.9234 22.7276 69.582 23.3356C69.2514 23.9436 68.814 24.4076 68.27 24.7276C67.726 25.0476 67.134 25.2076 66.494 25.2076ZM66.494 24.1196C66.942 24.1196 67.3367 23.997 67.678 23.7516C68.0194 23.4956 68.2807 23.1436 68.462 22.6956C68.6434 22.2476 68.734 21.7303 68.734 21.1436C68.734 20.5463 68.6434 20.0236 68.462 19.5756C68.2807 19.117 68.0194 18.765 67.678 18.5196C67.3367 18.2636 66.942 18.1356 66.494 18.1356C66.046 18.1356 65.6514 18.2636 65.31 18.5196C64.9794 18.765 64.718 19.117 64.526 19.5756C64.3447 20.0236 64.254 20.5463 64.254 21.1436C64.254 21.7303 64.3447 22.2476 64.526 22.6956C64.718 23.1436 64.9794 23.4956 65.31 23.7516C65.6514 23.997 66.046 24.1196 66.494 24.1196ZM74.7659 28.5996C74.1366 28.5996 73.5766 28.5143 73.0859 28.3436C72.6059 28.1836 72.2273 27.949 71.9499 27.6396C71.6833 27.3303 71.5499 26.9516 71.5499 26.5036C71.5499 26.173 71.6513 25.853 71.8539 25.5436C72.0566 25.245 72.3339 24.9783 72.6859 24.7436V24.6796C72.4939 24.5516 72.3286 24.3863 72.1899 24.1836C72.0619 23.9703 71.9979 23.7143 71.9979 23.4156C71.9979 23.085 72.0886 22.797 72.2699 22.5516C72.4619 22.3063 72.6539 22.1143 72.8459 21.9756V21.9116C72.6006 21.6983 72.3713 21.4103 72.1579 21.0476C71.9446 20.685 71.8379 20.2743 71.8379 19.8156C71.8379 19.2503 71.9713 18.7596 72.2379 18.3436C72.5153 17.9276 72.8726 17.6076 73.3099 17.3836C73.7579 17.1596 74.2433 17.0476 74.7659 17.0476C74.9793 17.0476 75.1819 17.069 75.3739 17.1116C75.5659 17.1436 75.7313 17.1863 75.8699 17.2396H78.5739V18.2476H76.9579V18.3116C77.1499 18.4823 77.3046 18.6956 77.4219 18.9516C77.5499 19.2076 77.6139 19.5116 77.6139 19.8636C77.6139 20.4183 77.4859 20.8983 77.2299 21.3036C76.9739 21.6983 76.6326 22.0076 76.2059 22.2316C75.7793 22.445 75.2993 22.5516 74.7659 22.5516C74.5739 22.5516 74.3766 22.5303 74.1739 22.4876C73.9713 22.4343 73.7793 22.365 73.5979 22.2796C73.4699 22.397 73.3526 22.525 73.2459 22.6636C73.1499 22.8023 73.1019 22.9836 73.1019 23.2076C73.1019 23.453 73.1979 23.6556 73.3899 23.8156C73.5926 23.9756 73.9553 24.0556 74.4779 24.0556H75.9819C76.8886 24.0556 77.5659 24.205 78.0139 24.5036C78.4726 24.7916 78.7019 25.261 78.7019 25.9116C78.7019 26.3916 78.5419 26.8343 78.2219 27.2396C77.9019 27.645 77.4433 27.9703 76.8459 28.2156C76.2593 28.4716 75.5659 28.5996 74.7659 28.5996ZM74.7659 21.6716C75.0646 21.6716 75.3366 21.597 75.5819 21.4476C75.8379 21.2876 76.0406 21.069 76.1899 20.7916C76.3393 20.5143 76.4139 20.189 76.4139 19.8156C76.4139 19.2396 76.2539 18.797 75.9339 18.4876C75.6139 18.1676 75.2246 18.0076 74.7659 18.0076C74.3073 18.0076 73.9179 18.1676 73.5979 18.4876C73.2779 18.797 73.1179 19.2396 73.1179 19.8156C73.1179 20.189 73.1926 20.5143 73.3419 20.7916C73.4913 21.069 73.6886 21.2876 73.9339 21.4476C74.1899 21.597 74.4673 21.6716 74.7659 21.6716ZM74.9579 27.6876C75.4486 27.6876 75.8753 27.613 76.2379 27.4636C76.6113 27.3143 76.8993 27.117 77.1019 26.8716C77.3153 26.6263 77.4219 26.3703 77.4219 26.1036C77.4219 25.741 77.2833 25.4903 77.0059 25.3516C76.7393 25.213 76.3553 25.1436 75.8539 25.1436H74.5099C74.3606 25.1436 74.1953 25.133 74.0139 25.1116C73.8433 25.0903 73.6726 25.0583 73.5019 25.0156C73.2139 25.2183 73.0059 25.4316 72.8779 25.6556C72.7606 25.8796 72.7019 26.1036 72.7019 26.3276C72.7019 26.7436 72.8993 27.0743 73.2939 27.3196C73.6993 27.565 74.2539 27.6876 74.9579 27.6876ZM81.5964 25.1596C81.2658 25.1596 80.9991 25.0956 80.7964 24.9676C80.5938 24.829 80.4444 24.6316 80.3484 24.3756C80.2524 24.109 80.2044 23.789 80.2044 23.4156V13.6236H81.5164V23.5116C81.5164 23.725 81.5538 23.8743 81.6284 23.9596C81.7031 24.0343 81.7938 24.0716 81.9004 24.0716C81.9431 24.0716 81.9804 24.0716 82.0124 24.0716C82.0551 24.061 82.1084 24.0503 82.1724 24.0396L82.3644 25.0316C82.2684 25.0636 82.1564 25.0903 82.0284 25.1116C81.9111 25.1436 81.7671 25.1596 81.5964 25.1596ZM87.4345 25.2076C86.7412 25.2076 86.1065 25.0476 85.5305 24.7276C84.9652 24.397 84.5172 23.933 84.1865 23.3356C83.8559 22.7276 83.6905 21.9916 83.6905 21.1276C83.6905 20.285 83.8612 19.5596 84.2025 18.9516C84.5439 18.3436 84.9812 17.8743 85.5145 17.5436C86.0479 17.213 86.6132 17.0476 87.2105 17.0476C87.8719 17.0476 88.4319 17.2023 88.8905 17.5116C89.3599 17.8103 89.7119 18.2316 89.9465 18.7756C90.1812 19.3196 90.2985 19.9596 90.2985 20.6956C90.2985 20.8343 90.2932 20.9676 90.2825 21.0956C90.2825 21.2236 90.2665 21.3516 90.2345 21.4796H84.6345V20.4396H89.1145C89.1145 19.693 88.9492 19.1223 88.6185 18.7276C88.2985 18.3223 87.8345 18.1196 87.2265 18.1196C86.8745 18.1196 86.5279 18.221 86.1865 18.4236C85.8452 18.6156 85.5625 18.9303 85.3385 19.3676C85.1252 19.805 85.0185 20.3863 85.0185 21.1116C85.0185 21.773 85.1305 22.3276 85.3545 22.7756C85.5892 23.2236 85.9039 23.565 86.2985 23.7996C86.6932 24.0236 87.1252 24.1356 87.5945 24.1356C87.9679 24.1356 88.3145 24.0823 88.6345 23.9756C88.9652 23.869 89.2639 23.725 89.5305 23.5436L90.0105 24.4076C89.6692 24.6423 89.2852 24.8343 88.8585 24.9836C88.4425 25.133 87.9679 25.2076 87.4345 25.2076Z" fill="#505254"/>
<path fill-rule="evenodd" clip-rule="evenodd" d="M36.9681 20.7635C36.9681 20.123 36.9106 19.5072 36.8038 18.916H28.2937V22.4098H33.1566C32.9472 23.5388 32.3105 24.4954 31.3536 25.1359V27.4021H34.2738C35.9824 25.8297 36.9681 23.5142 36.9681 20.7635Z" fill="#4285F4"/>
<path fill-rule="evenodd" clip-rule="evenodd" d="M28.2936 29.5895C30.7333 29.5895 32.7787 28.7807 34.2737 27.4012L31.3535 25.135C30.5444 25.6769 29.5093 25.9971 28.2936 25.9971C25.9402 25.9971 23.9482 24.4083 23.2377 22.2734H20.2189V24.6136C21.7057 27.5655 24.7614 29.5895 28.2936 29.5895Z" fill="#34A853"/>
<path fill-rule="evenodd" clip-rule="evenodd" d="M23.2377 22.2743C23.057 21.7324 22.9543 21.1535 22.9543 20.5582C22.9543 19.9629 23.057 19.384 23.2377 18.8421V16.502H20.2189C19.6069 17.7213 19.2578 19.1007 19.2578 20.5582C19.2578 22.0157 19.6069 23.3951 20.2189 24.6145L23.2377 22.2743Z" fill="#FBBC05"/>
<path fill-rule="evenodd" clip-rule="evenodd" d="M28.2936 15.1177C29.6202 15.1177 30.8113 15.5734 31.7478 16.4684L34.3394 13.8779C32.7746 12.4204 30.7292 11.5254 28.2936 11.5254C24.7614 11.5254 21.7057 13.5494 20.2189 16.5013L23.2377 18.8414C23.9482 16.7066 25.9402 15.1177 28.2936 15.1177Z" fill="#EA4335"/>
</svg>
