<svg width="40" height="40" viewBox="0 0 40 40" fill="none" xmlns="http://www.w3.org/2000/svg">
<path d="M20.0006 8.33331C18.2325 8.33331 16.5368 9.03569 15.2866 10.2859C14.0364 11.5362 13.334 13.2319 13.334 15C13.334 16.7681 14.0364 18.4638 15.2866 19.714C16.5368 20.9643 18.2325 21.6666 20.0006 21.6666C21.7688 21.6666 23.4644 20.9643 24.7147 19.714C25.9649 18.4638 26.6673 16.7681 26.6673 15C26.6673 13.2319 25.9649 11.5362 24.7147 10.2859C23.4644 9.03569 21.7688 8.33331 20.0006 8.33331Z" fill="#08B4A9"/>
<path d="M13.334 15H26.6673V20H13.334V15Z" fill="#E6B60F"/>
<path d="M25.8333 4.16665V7.49998H24C22 7.49998 23 6.66665 20 6.66665V3.33331C23 3.33331 22 4.16665 24 4.16665H25.8333Z" fill="#FF476F"/>
<path d="M3.33398 20H36.6673V34.1667H3.33398V20Z" fill="#F0C017"/>
<path d="M25.834 28.3333H29.1673V32.5H25.834V28.3333ZM20.834 28.3333H24.1673V32.5H20.834V28.3333ZM15.834 28.3333H19.1673V32.5H15.834V28.3333ZM30.834 28.3333H34.1673V32.5H30.834V28.3333ZM10.834 28.3333H14.1673V32.5H10.834V28.3333ZM5.83398 28.3333H9.16732V32.5H5.83398V28.3333ZM25.834 22.5H29.1673V26.6666H25.834V22.5ZM20.834 22.5H24.1673V26.6666H20.834V22.5ZM15.834 22.5H19.1673V26.6666H15.834V22.5ZM24.1673 20H20.834V17.5C20.834 16.5833 21.584 15.8333 22.5007 15.8333C23.4173 15.8333 24.1673 16.5833 24.1673 17.5V20ZM19.1673 20H15.834V17.5C15.834 16.5833 16.584 15.8333 17.5007 15.8333C18.4173 15.8333 19.1673 16.5833 19.1673 17.5V20ZM30.834 22.5H34.1673V26.6666H30.834V22.5ZM10.834 22.5H14.1673V26.6666H10.834V22.5ZM5.83398 22.5H9.16732V26.6666H5.83398V22.5Z" fill="#B18D0B"/>
</svg>
