<svg width="40" height="40" viewBox="0 0 40 40" fill="none" xmlns="http://www.w3.org/2000/svg">
<path d="M15.8327 10V6.66667H24.166V10H25.8327V6.66667C25.8327 5.74667 25.086 5 24.166 5H15.8327C14.9127 5 14.166 5.74667 14.166 6.66667V10H15.8327Z" fill="#32383E"/>
<path d="M36.6673 30.8333C36.6673 33.135 34.8023 35 32.5007 35H7.50065C5.19898 35 3.33398 33.135 3.33398 30.8333V14.1667C3.33398 11.865 5.19898 10 7.50065 10H32.5007C34.8023 10 36.6673 11.865 36.6673 14.1667V30.8333Z" fill="#FF476F"/>
<path d="M19.9993 14.1667C17.7892 14.1667 15.6696 15.0447 14.1068 16.6075C12.544 18.1703 11.666 20.2899 11.666 22.5C11.666 24.7102 12.544 26.8298 14.1068 28.3926C15.6696 29.9554 17.7892 30.8334 19.9993 30.8334C22.2095 30.8334 24.3291 29.9554 25.8919 28.3926C27.4547 26.8298 28.3327 24.7102 28.3327 22.5C28.3327 20.2899 27.4547 18.1703 25.8919 16.6075C24.3291 15.0447 22.2095 14.1667 19.9993 14.1667Z" fill="white"/>
<path d="M18.334 17.5H21.6673V27.5H18.334V17.5Z" fill="#FF476F"/>
<path d="M15 20.8333H25V24.1666H15V20.8333Z" fill="#FF476F"/>
</svg>
