<svg width="24" height="25" viewBox="0 0 24 25" fill="none" xmlns="http://www.w3.org/2000/svg">
<path d="M15 22.7044V20.4044L16.3 20.6544C17.75 20.9544 19.1 19.9044 19.2 18.4544L19.5 15.2044L20.95 14.6044C21.45 14.4044 21.65 13.8044 21.35 13.3044L19.5 10.2044C19.2 6.40441 17.05 2.70441 11.5 2.70441C5.8 2.70441 3 6.90441 3 11.2044C3 13.0044 3.65 14.6544 4.65 16.0044C5.55 17.2544 6 18.7544 6 20.2544V22.7044H15Z" fill="#FFA233"/>
<path d="M15.5002 10.7044C15.5002 8.35441 13.4502 6.4544 11.0502 6.7544C9.20021 6.9544 7.70021 8.45441 7.55021 10.3044C7.40021 11.7044 8.00021 13.0044 9.00021 13.8044C9.45021 14.1544 10.0502 14.6544 10.0502 15.2044H13.0502C13.0502 14.6044 13.6502 14.1544 14.1002 13.8044C14.9502 13.0544 15.5002 11.9544 15.5002 10.7044Z" fill="#FFDC62"/>
<path d="M11.9998 15.7044H10.9998V11.4044L9.7998 10.2044L10.4998 9.50441L11.9998 11.0044V15.7044Z" fill="white"/>
<path d="M10.7979 11.1994L12.4949 9.50232L13.202 10.2094L11.505 11.9065L10.7979 11.1994Z" fill="white"/>
<path d="M10 15.2044V16.7044C10 17.2044 10.35 17.6044 10.8 17.7044C10.9 18.0044 11.2 18.2044 11.5 18.2044C11.8 18.2044 12.1 18.0044 12.2 17.7044C12.65 17.6044 13 17.2044 13 16.7044V15.2044H10Z" fill="#097ABA"/>
<path opacity="0.3" d="M13 16.7044V15.7544L10 16.1544V16.7044C10 16.8544 10.05 17.0044 10.1 17.1544L13 16.8044C13 16.7544 13 16.7044 13 16.7044Z" fill="#A8E0FF"/>
</svg>
