<svg width="40" height="40" viewBox="0 0 40 40" fill="none" xmlns="http://www.w3.org/2000/svg">
<path d="M20.0007 17.3333C19.2934 17.3333 18.6151 17.6143 18.115 18.1144C17.6149 18.6145 17.334 19.2927 17.334 20C17.334 20.7072 17.6149 21.3855 18.115 21.8856C18.6151 22.3857 19.2934 22.6666 20.0007 22.6666C20.7079 22.6666 21.3862 22.3857 21.8863 21.8856C22.3864 21.3855 22.6673 20.7072 22.6673 20C22.6673 19.2927 22.3864 18.6145 21.8863 18.1144C21.3862 17.6143 20.7079 17.3333 20.0007 17.3333Z" fill="#0D6D8C"/>
<path d="M25.3333 20C25.3333 22.4427 23.6733 24.4853 21.428 25.1147L22.8093 27.4827C25.84 26.344 28 23.428 28 20C28 16.576 25.8453 13.664 22.8227 12.5213L21.4347 14.8867C23.676 15.5187 25.3333 17.56 25.3333 20ZM14.6667 20C14.6667 17.5573 16.3267 15.5147 18.572 14.8853L17.1907 12.5173C14.16 13.656 12 16.572 12 20C12 23.424 14.1547 26.336 17.1773 27.4787L18.5653 25.1133C16.324 24.4813 14.6667 22.44 14.6667 20Z" fill="#18B7E9"/>
<path d="M15.8113 29.808C12.006 28.176 9.33268 24.3947 9.33268 20C9.33268 15.5974 12.014 11.8107 15.8287 10.184L14.4807 7.87335C9.87402 9.97335 6.66602 14.6067 6.66602 20C6.66602 25.384 9.86335 30.0107 14.4567 32.116L15.8113 29.808ZM25.542 7.88402L24.1887 10.192C27.9927 11.824 30.666 15.6054 30.666 20C30.666 24.4027 27.9847 28.1894 24.17 29.816L25.518 32.1267C30.1247 30.0267 33.3327 25.3934 33.3327 20C33.3327 14.616 30.1353 9.98935 25.542 7.88402Z" fill="#71D4FF"/>
<path d="M13.1087 34.4173C7.73132 31.836 4.00065 26.352 4.00065 20C4.00065 13.636 7.74465 8.14398 13.138 5.56798L11.7886 3.25598C5.60198 6.29598 1.33398 12.6413 1.33398 20C1.33398 27.344 5.58598 33.68 11.754 36.7267L13.1087 34.4173ZM28.2473 3.27331L26.8927 5.58265C32.27 8.16398 36.0006 13.648 36.0006 20C36.0006 26.364 32.2566 31.856 26.8633 34.432L28.2127 36.744C34.3993 33.704 38.6673 27.3587 38.6673 20C38.6673 12.656 34.4153 6.31998 28.2473 3.27331Z" fill="#B5E4FF"/>
</svg>
