<svg width="40" height="40" viewBox="0 0 40 40" fill="none" xmlns="http://www.w3.org/2000/svg">
<path d="M19.6979 20.8217C18.7014 19.2418 17.8639 17.5669 17.1979 15.8217C15.6462 11.9317 26.6562 8.41671 22.1862 1.66504C24.1212 6.33171 15.2412 9.21337 14.4162 13.0984C13.6662 16.665 19.6862 20.8217 19.6979 20.8217Z" fill="#F44336"/>
<path d="M19.9084 13.8318C19.7318 16.1384 21.9518 17.3668 22.0151 19.0518C21.9699 19.5382 21.8288 20.0109 21.6 20.4426C21.3711 20.8743 21.0591 21.2563 20.6818 21.5668C21.3908 21.4186 22.0559 21.1082 22.625 20.6601C23.194 20.2119 23.6516 19.638 23.9618 18.9834C24.8284 16.6601 22.2801 15.0701 22.5434 13.2101C22.7884 11.4334 28.0718 8.12842 28.0718 8.12842C28.0718 8.12842 20.3051 8.64175 19.9084 13.8318Z" fill="#F44336"/>
<path d="M27.4288 20.9651C27.7448 20.8599 28.0801 20.8256 28.4108 20.8646C28.7415 20.9036 29.0596 21.015 29.3425 21.1908C29.6254 21.3666 29.866 21.6025 30.0474 21.8818C30.2289 22.1611 30.3465 22.4769 30.3921 22.8068C30.3921 25.4735 26.7055 27.9735 26.7055 27.9735C26.7055 27.9735 32.4121 27.2935 32.4121 22.9268C32.4121 20.0468 29.6105 19.3318 27.4288 20.9651ZM24.7205 23.1101C24.7205 23.1101 26.5005 21.8418 26.9738 21.3668C22.6071 22.2935 12.6405 22.4185 12.6405 21.6135C12.6405 20.8718 15.8555 20.1135 15.8555 20.1135C15.8555 20.1135 8.73047 20.0101 8.73047 22.1135C8.7288 24.3018 18.0555 24.4585 24.7205 23.1101Z" fill="#1565C0"/>
<path d="M23.6246 25.1051C19.4913 26.4784 11.8779 26.0401 14.1329 24.1951C13.0346 24.1951 11.4062 25.0784 11.4062 25.9267C11.4062 27.6284 19.6396 28.9434 25.7396 26.4517L23.6246 25.1051Z" fill="#1565C0"/>
<path d="M15.1497 28.0084C13.6497 28.0084 12.6797 28.9751 12.6797 29.6751C12.6797 31.8668 21.6264 32.0884 25.1714 29.8634L22.918 28.3634C20.2697 29.5351 13.618 29.6951 15.1497 28.0084Z" fill="#1565C0"/>
<path d="M31.2762 31.5766C31.2762 30.7183 30.3095 30.315 29.9629 30.1216C32.0045 35.0466 9.5062 34.665 9.5062 31.7566C9.5062 31.09 11.1629 30.4483 12.6929 30.7566L11.3912 29.9883C8.3412 29.51 6.26953 30.8516 6.26953 31.9333C6.26953 36.975 31.2762 36.7316 31.2762 31.5766Z" fill="#1565C0"/>
<path d="M33.769 33.385C29.969 37.1383 20.3323 38.5067 10.6406 36.1867C20.3306 40.315 33.7223 37.99 33.769 33.385Z" fill="#1565C0"/>
</svg>
