<svg width="25" height="25" viewBox="0 0 25 25" fill="none" xmlns="http://www.w3.org/2000/svg">
<g clip-path="url(#clip0)">
<path d="M22.499 2.50098H2.49902V22.501H22.499V2.50098Z" fill="#FFD600"/>
<path d="M15.5761 17.468C15.9601 18.092 16.3761 18.691 17.2631 18.691C18.0061 18.691 18.3961 18.322 18.3961 17.81C18.3961 17.198 17.9961 16.981 17.1751 16.625L16.7271 16.434C15.4331 15.885 14.5731 15.197 14.5731 13.745C14.5762 13.4129 14.6484 13.0852 14.7851 12.7826C14.9218 12.48 15.1201 12.2091 15.3672 11.9873C15.6143 11.7655 15.9049 11.5976 16.2204 11.4942C16.536 11.3909 16.8696 11.3543 17.2001 11.387C17.7185 11.3492 18.2366 11.4645 18.6901 11.7185C19.1436 11.9725 19.5125 12.3541 19.7511 12.816L18.3511 13.709C18.2589 13.4795 18.0992 13.2835 17.8931 13.1469C17.687 13.0103 17.4443 12.9395 17.1971 12.944C17.0895 12.933 16.9808 12.9445 16.878 12.9779C16.7751 13.0112 16.6803 13.0656 16.5996 13.1375C16.5189 13.2095 16.454 13.2974 16.4092 13.3958C16.3643 13.4942 16.3405 13.6009 16.3391 13.709C16.3391 14.245 16.6721 14.461 17.4391 14.793L17.8871 14.984C19.4121 15.633 20.2721 16.297 20.2721 17.784C20.2721 19.391 19.0031 20.271 17.3001 20.271C16.6519 20.3056 16.0081 20.147 15.4502 19.8154C14.8922 19.4837 14.4453 18.9939 14.1661 18.408L15.5761 17.468ZM9.13908 17.514C9.25512 17.7707 9.44036 17.99 9.67403 18.1474C9.9077 18.3048 10.1806 18.394 10.4621 18.405C11.0501 18.405 11.3881 18.173 11.3881 17.27V11.39H13.2401V17.558C13.2842 17.9218 13.2459 18.2909 13.1278 18.6379C13.0098 18.9849 12.8151 19.3008 12.5582 19.5622C12.3013 19.8237 11.9888 20.0238 11.6439 20.1479C11.299 20.272 10.9306 20.3168 10.5661 20.279C9.95884 20.2677 9.36692 20.0864 8.85751 19.7556C8.34809 19.4249 7.94157 18.958 7.68408 18.408L9.13908 17.514Z" fill="#000001"/>
</g>
<defs>
<clipPath id="clip0">
<rect width="24" height="24" fill="white" transform="translate(0.490234 0.5)"/>
</clipPath>
</defs>
</svg>
