<svg width="73" height="24" viewBox="0 0 73 24" fill="none" xmlns="http://www.w3.org/2000/svg">
<path d="M34.9042 13.8299H34.957L38.4594 10.1876H40.677L36.7698 13.989L41.0114 18.5683H38.7234L34.957 14.2189H34.9042V18.5683H33.2498V5.20166H34.9042V13.8299Z" fill="#080A0C"/>
<path d="M46.7844 13.1396C46.7844 12.5207 46.5908 12.0434 46.2212 11.7428C45.8516 11.4422 45.3411 11.3008 44.7251 11.3008C44.2499 11.3008 43.8099 11.3892 43.4051 11.566C42.9827 11.7605 42.6307 11.9903 42.3491 12.2732L41.4691 11.2124C41.8739 10.8234 42.3843 10.5228 42.9827 10.293C43.5635 10.0631 44.1971 9.95703 44.8835 9.95703C45.4819 9.95703 45.9924 10.0454 46.45 10.2046C46.89 10.3814 47.242 10.6112 47.5236 10.9118C47.8052 11.2124 48.0164 11.5483 48.1572 11.955C48.298 12.3616 48.3684 12.786 48.3684 13.2457V16.9056C48.3684 17.1885 48.386 17.4891 48.4036 17.7896C48.4036 18.1079 48.4388 18.3731 48.4916 18.5676H46.9956C46.9076 18.1609 46.8548 17.7719 46.8548 17.3653H46.802C46.5028 17.8073 46.1156 18.1609 45.658 18.4085C45.1827 18.656 44.6371 18.7797 44.0035 18.7797C43.6691 18.7797 43.3347 18.7444 42.9827 18.656C42.6131 18.5676 42.2963 18.4085 41.9971 18.214C41.6979 18.0195 41.4691 17.7543 41.2755 17.4183C41.0643 17.0824 40.9763 16.6757 40.9763 16.1984C40.9763 15.5618 41.1523 15.0491 41.4867 14.6778C41.8211 14.3065 42.2787 14.0236 42.8243 13.8291C43.3699 13.6346 44.0035 13.5109 44.6899 13.4578C45.3763 13.4048 46.0804 13.3694 46.7844 13.3694V13.1396ZM46.3796 14.5717C45.9748 14.5717 45.5523 14.5894 45.1123 14.6248C44.6723 14.6601 44.2675 14.7308 43.9155 14.8369C43.5459 14.943 43.2467 15.1021 43.0179 15.3143C42.7891 15.5265 42.6659 15.8094 42.6659 16.163C42.6659 16.4105 42.7187 16.6227 42.8243 16.7818C42.9123 16.9409 43.0531 17.0824 43.2115 17.1885C43.3699 17.2946 43.5635 17.3653 43.7571 17.4006C43.9507 17.4537 44.1619 17.4714 44.3731 17.4714C45.1475 17.4714 45.746 17.2415 46.1684 16.7641C46.5732 16.3044 46.7844 15.721 46.7844 15.0137V14.5717H46.3796Z" fill="#080A0C"/>
<path d="M51.8357 10.1869C51.8533 10.3991 51.8709 10.6466 51.8885 10.8941C51.9061 11.1593 51.9061 11.3892 51.9061 11.566H51.9589C52.0645 11.3361 52.2053 11.124 52.3989 10.9295C52.5749 10.735 52.7861 10.5759 53.0149 10.4167C53.2437 10.2753 53.5077 10.1692 53.7893 10.0808C54.0709 9.99239 54.3701 9.95703 54.6693 9.95703C55.2149 9.95703 55.6725 10.0454 56.0597 10.2222C56.4469 10.4167 56.7637 10.6643 57.0277 10.9648C57.2917 11.2654 57.4853 11.6367 57.6085 12.0434C57.7317 12.45 57.7845 12.892 57.7845 13.3694V18.5676H56.1301V13.9175C56.1301 13.5816 56.1125 13.2457 56.0597 12.9451C56.0069 12.6445 55.9013 12.3616 55.7605 12.1318C55.6197 11.9019 55.4261 11.7074 55.1797 11.566C54.9333 11.4245 54.6165 11.3538 54.2293 11.3538C53.5781 11.3538 53.0325 11.6013 52.6277 12.0964C52.2053 12.6092 51.9941 13.281 51.9941 14.112V18.5676H50.3397V11.9903C50.3397 11.7605 50.3397 11.4776 50.3221 11.124C50.3045 10.7703 50.2869 10.4521 50.2693 10.1869H51.8357Z" fill="#080A0C"/>
<path d="M66.4302 17.2423C66.1134 17.755 65.691 18.144 65.1454 18.3915C64.5998 18.6744 64.0189 18.7982 63.4205 18.7982C62.7693 18.7982 62.1885 18.6921 61.6781 18.4446C61.1677 18.2147 60.7277 17.9141 60.3581 17.5075C59.9885 17.1008 59.7069 16.6411 59.5133 16.093C59.3197 15.5449 59.2141 14.9791 59.2141 14.3603C59.2141 13.7415 59.3197 13.1757 59.5133 12.6276C59.7069 12.0972 60.0061 11.6375 60.3757 11.2308C60.7277 10.8242 61.1853 10.5236 61.6957 10.2937C62.2061 10.0639 62.7869 9.95779 63.4029 9.95779C64.0893 9.95779 64.6702 10.0992 65.1806 10.3821C65.691 10.6827 66.0782 11.0363 66.3774 11.443H66.4126V5.20166H68.067V18.5683H66.4654V17.2423H66.4302ZM60.9389 14.3603C60.9389 14.7493 60.9917 15.1206 61.1149 15.4919C61.2381 15.8632 61.4141 16.1814 61.6429 16.4643C61.8717 16.7472 62.1709 16.9771 62.5053 17.1362C62.8397 17.313 63.2445 17.4014 63.7021 17.4014C64.1245 17.4014 64.5117 17.313 64.8638 17.1539C65.1982 16.9947 65.4974 16.7649 65.7438 16.482C65.9902 16.2168 66.1838 15.8985 66.3246 15.5272C66.4478 15.1559 66.5182 14.7846 66.5182 14.378C66.5182 13.9713 66.4478 13.6 66.3246 13.2287C66.1838 12.8574 65.9902 12.5392 65.7438 12.2563C65.4974 11.9734 65.1982 11.7436 64.8638 11.5844C64.5117 11.4253 64.1245 11.3369 63.7021 11.3369C63.2445 11.3369 62.8397 11.4253 62.5053 11.5844C62.1709 11.7436 61.8717 11.9734 61.6429 12.2563C61.4141 12.5392 61.2381 12.8574 61.1149 13.2287C60.9917 13.6 60.9389 13.9713 60.9389 14.3603Z" fill="#080A0C"/>
<path d="M71.8525 18.5671H70.1981V10.1864H71.8525V18.5671ZM72.1341 7.163C72.1341 7.46357 72.0285 7.72879 71.8173 7.92327C71.5885 8.11776 71.3245 8.22385 71.0253 8.22385C70.7261 8.22385 70.4621 8.11776 70.2509 7.90559C70.0397 7.71111 69.9341 7.46357 69.9341 7.163C69.9341 6.86243 70.0397 6.59721 70.2509 6.38505C70.4621 6.19056 70.7261 6.08447 71.0253 6.08447C71.3245 6.08447 71.5885 6.19056 71.8173 6.38505C72.0285 6.59721 72.1341 6.86243 72.1341 7.163Z" fill="#080A0C"/>
<path fill-rule="evenodd" clip-rule="evenodd" d="M21.1738 19.583C17.5981 23.6391 11.6663 24.6001 6.98747 21.8849C2.30633 19.1685 0.170821 13.5261 1.87549 8.38431L21.1738 19.583Z" fill="#FFA0B5"/>
<path fill-rule="evenodd" clip-rule="evenodd" d="M23.4443 8.38379C25.1513 13.5243 23.0135 19.168 18.3346 21.8831C13.6534 24.5996 7.72404 23.6372 4.146 19.5825L23.4443 8.38379Z" fill="#FFA0B5"/>
<path fill-rule="evenodd" clip-rule="evenodd" d="M12.6625 14.6333L21.171 19.5681C20.7604 20.0337 20.3189 20.4584 19.8521 20.8418C19.3846 21.2249 18.8819 21.5745 18.3458 21.8854C17.8721 22.1602 17.3852 22.397 16.8887 22.5974C15.5467 23.1366 14.1141 23.4136 12.6716 23.4155H12.6625H12.6533C11.2112 23.4136 9.77826 23.1366 8.43626 22.5974C7.93979 22.397 7.45285 22.1602 6.97911 21.8854C6.44304 21.5745 5.94034 21.2249 5.47284 20.8418C5.00607 20.4584 4.5646 20.0337 4.1543 19.5681L12.6625 14.6333Z" fill="#FF2052"/>
<path fill-rule="evenodd" clip-rule="evenodd" d="M12.6509 0.210449C19.1266 0.210449 24.3843 5.49224 24.3843 11.9976C24.3843 18.503 19.1266 23.7848 12.6509 23.7848C6.17517 23.7848 0.91748 18.503 0.91748 11.9976C0.91748 5.49224 6.17517 0.210449 12.6509 0.210449ZM12.6509 1.38917C18.4792 1.38917 23.2109 6.14259 23.2109 11.9976C23.2109 17.8526 18.4792 22.6061 12.6509 22.6061C6.82255 22.6061 2.09081 17.8526 2.09081 11.9976C2.09081 6.14259 6.82255 1.38917 12.6509 1.38917Z" fill="#FF2052"/>
</svg>
