<svg width="30" height="31" viewBox="0 0 30 31" fill="none" xmlns="http://www.w3.org/2000/svg">
<path d="M22.8375 1.99023H7.1625C5.275 1.99023 3.75 3.52773 3.75 5.40273V25.7402C3.75 27.8027 5.4375 29.4902 7.5 29.4902H22.5C24.5625 29.4902 26.25 27.8027 26.25 25.7402V5.40273C26.25 3.51523 24.7125 1.99023 22.8375 1.99023ZM13.75 4.49023V14.8902L10.3125 11.4402L8.5375 13.2027L15 19.6652L21.4625 13.2027L19.6875 11.4402L16.25 14.8902V4.49023H22.5C23.1875 4.49023 23.75 5.05273 23.75 5.74023V19.8277C23.75 20.3277 23.3375 20.7402 22.8375 20.7402H7.1625C6.6625 20.7402 6.25 20.3277 6.25 19.8277V5.74023C6.25 5.05273 6.8125 4.49023 7.5 4.49023H13.75ZM22.5 26.9902H7.5C6.8125 26.9902 6.25 26.4277 6.25 25.7402V23.1027C6.5375 23.1902 6.85 23.2402 7.1625 23.2402H22.8375C23.1625 23.2402 23.4625 23.1777 23.75 23.1027V25.7402C23.75 26.4277 23.1875 26.9902 22.5 26.9902Z" fill="white"/>
</svg>
