<svg width="40" height="40" viewBox="0 0 40 40" fill="none" xmlns="http://www.w3.org/2000/svg">
<path d="M20.4397 3.33167C19.2811 3.33254 18.1251 3.44021 16.9864 3.65333C13.6114 4.24 12.9964 5.475 12.9964 7.74833V11.225H20.8914V12.98H8.88135C7.74502 12.8925 6.61538 13.2189 5.70077 13.8989C4.78615 14.5789 4.14824 15.5666 3.90468 16.68C3.16458 19.2953 3.16458 22.0647 3.90468 24.68C4.47968 27.0133 5.73802 28.7633 8.05802 28.7633H11.243V24.2917C11.2877 22.9543 11.8315 21.6821 12.7675 20.7258C13.7034 19.7695 14.9636 19.1984 16.2997 19.125H22.6464C23.7301 19.1731 24.7907 18.8015 25.6074 18.0875C26.4242 17.3735 26.9342 16.3721 27.0314 15.2917V7.74833C27.0211 6.73134 26.6392 5.75323 25.9576 4.99833C25.2761 4.24342 24.342 3.76385 23.3314 3.65C22.3801 3.44999 21.4116 3.34337 20.4397 3.33167ZM16.068 6.84C16.417 6.84 16.7517 6.97863 16.9985 7.2254C17.2452 7.47216 17.3839 7.80685 17.3839 8.15583C17.3839 8.50481 17.2452 8.8395 16.9985 9.08627C16.7517 9.33303 16.417 9.47166 16.068 9.47166C15.719 9.47166 15.3843 9.33303 15.1376 9.08627C14.8908 8.8395 14.7522 8.50481 14.7522 8.15583C14.7522 7.80685 14.8908 7.47216 15.1376 7.2254C15.3843 6.97863 15.719 6.84 16.068 6.84Z" fill="#0277BD"/>
<path d="M19.5875 36.6634C20.746 36.6625 21.902 36.5548 23.0408 36.3417C26.4158 35.7534 27.0308 34.52 27.0308 32.245V28.7684H19.1358V27.015H31.1475C32.2838 27.1025 33.4134 26.7761 34.3281 26.0961C35.2427 25.4161 35.8806 24.4284 36.1241 23.315C36.8642 20.6997 36.8642 17.9303 36.1241 15.315C35.5491 12.9817 34.2908 11.2317 31.9691 11.2317H28.7841V15.7084C28.7395 17.0457 28.1956 18.3179 27.2597 19.2742C26.3237 20.2305 25.0636 20.8016 23.7275 20.875H17.3808C16.2968 20.8265 15.2358 21.1979 14.4187 21.9119C13.6016 22.6259 13.0913 23.6276 12.9941 24.7084V32.245C13.0044 33.262 13.3863 34.2401 14.0679 34.995C14.7494 35.7499 15.6835 36.2295 16.6941 36.3434C17.6459 36.544 18.6149 36.6512 19.5875 36.6634ZM23.9608 33.155C23.6118 33.155 23.2771 33.0164 23.0304 32.7696C22.7836 32.5229 22.645 32.1882 22.645 31.8392C22.645 31.4902 22.7836 31.1555 23.0304 30.9088C23.2771 30.662 23.6118 30.5234 23.9608 30.5234C24.3098 30.5234 24.6445 30.662 24.8912 30.9088C25.138 31.1555 25.2766 31.4902 25.2766 31.8392C25.2766 32.1882 25.138 32.5229 24.8912 32.7696C24.6445 33.0164 24.3098 33.155 23.9608 33.155Z" fill="#FFC107"/>
</svg>
