<svg width="25" height="25" viewBox="0 0 25 25" fill="none" xmlns="http://www.w3.org/2000/svg">
<g clip-path="url(#clip0)">
<path d="M12.7531 2.49902C12.0579 2.49955 11.3643 2.56415 10.6811 2.69202C8.65607 3.04402 8.28707 3.78502 8.28707 5.14902V7.23502H13.0241V8.28802H5.81807C5.13627 8.23555 4.45849 8.43137 3.90972 8.83936C3.36095 9.24735 2.9782 9.84 2.83207 10.508C2.38801 12.0772 2.38801 13.7388 2.83207 15.308C3.17707 16.708 3.93207 17.758 5.32407 17.758H7.23507V15.075C7.26185 14.2726 7.58818 13.5093 8.14975 12.9355C8.71132 12.3617 9.46741 12.0191 10.2691 11.975H14.0771C14.7273 12.0039 15.3637 11.7809 15.8537 11.3525C16.3438 10.9241 16.6498 10.3233 16.7081 9.67502V5.14902C16.7019 4.53883 16.4728 3.95197 16.0638 3.49902C15.6549 3.04608 15.0945 2.75834 14.4881 2.69002C13.9173 2.57002 13.3362 2.50605 12.7531 2.49902V2.49902ZM10.1301 4.60402C10.3395 4.60402 10.5403 4.6872 10.6883 4.83526C10.8364 4.98332 10.9196 5.18414 10.9196 5.39352C10.9196 5.60291 10.8364 5.80372 10.6883 5.95178C10.5403 6.09984 10.3395 6.18302 10.1301 6.18302C9.92068 6.18302 9.71987 6.09984 9.57181 5.95178C9.42375 5.80372 9.34057 5.60291 9.34057 5.39352C9.34057 5.18414 9.42375 4.98332 9.57181 4.83526C9.71987 4.6872 9.92068 4.60402 10.1301 4.60402V4.60402Z" fill="#0277BD"/>
<path d="M12.2431 22.498C12.9382 22.4975 13.6318 22.4329 14.3151 22.305C16.3401 21.952 16.7091 21.212 16.7091 19.847V17.761H11.9721V16.709H19.1791C19.8609 16.7615 20.5387 16.5657 21.0875 16.1577C21.6362 15.7497 22.019 15.157 22.1651 14.489C22.6092 12.9198 22.6092 11.2582 22.1651 9.68901C21.8201 8.28901 21.0651 7.23901 19.6721 7.23901H17.7611V9.92501C17.7343 10.7274 17.408 11.4907 16.8464 12.0645C16.2849 12.6383 15.5288 12.981 14.7271 13.025H10.9191C10.2687 12.9959 9.63208 13.2187 9.14182 13.6471C8.65156 14.0756 8.34541 14.6766 8.28711 15.325V19.847C8.29328 20.4572 8.52242 21.0441 8.93134 21.497C9.34026 21.95 9.90072 22.2377 10.5071 22.306C11.0781 22.4264 11.6596 22.4907 12.2431 22.498V22.498ZM14.8671 20.393C14.6577 20.393 14.4569 20.3098 14.3088 20.1618C14.1608 20.0137 14.0776 19.8129 14.0776 19.6035C14.0776 19.3941 14.1608 19.1933 14.3088 19.0453C14.4569 18.8972 14.6577 18.814 14.8671 18.814C15.0765 18.814 15.2773 18.8972 15.4254 19.0453C15.5734 19.1933 15.6566 19.3941 15.6566 19.6035C15.6566 19.8129 15.5734 20.0137 15.4254 20.1618C15.2773 20.3098 15.0765 20.393 14.8671 20.393V20.393Z" fill="#FFC107"/>
</g>
<defs>
<clipPath id="clip0">
<rect width="24" height="24" fill="white" transform="translate(0.490234 0.5)"/>
</clipPath>
</defs>
</svg>
