<svg width="40" height="40" viewBox="0 0 40 40" fill="none" xmlns="http://www.w3.org/2000/svg">
<path d="M4.16602 15.8333H35.8327V31.6666H4.16602V15.8333Z" fill="#DFE1E3"/>
<path d="M4.16602 31.6667H35.8327V35H4.16602V31.6667Z" fill="#DFE1E3"/>
<path d="M22.5 20H32.5V35H22.5V20Z" fill="#96989A"/>
<path d="M8.33398 20.8333H18.334V28.3333H8.33398V20.8333Z" fill="#96989A"/>
<path d="M20 13.3333C19.337 13.3333 18.7011 13.5967 18.2322 14.0655C17.7634 14.5344 17.5 15.1703 17.5 15.8333C17.5 16.4964 17.7634 17.1322 18.2322 17.6011C18.7011 18.0699 19.337 18.3333 20 18.3333C20.663 18.3333 21.2989 18.0699 21.7678 17.6011C22.2366 17.1322 22.5 16.4964 22.5 15.8333C22.5 15.1703 22.2366 14.5344 21.7678 14.0655C21.2989 13.5967 20.663 13.3333 20 13.3333ZM30 13.3333C29.337 13.3333 28.7011 13.5967 28.2322 14.0655C27.7634 14.5344 27.5 15.1703 27.5 15.8333C27.5 16.4964 27.7634 17.1322 28.2322 17.6011C28.7011 18.0699 29.337 18.3333 30 18.3333C30.663 18.3333 31.2989 18.0699 31.7678 17.6011C32.2366 17.1322 32.5 16.4964 32.5 15.8333C32.5 15.1703 32.2366 14.5344 31.7678 14.0655C31.2989 13.5967 30.663 13.3333 30 13.3333ZM10 13.3333C9.33696 13.3333 8.70107 13.5967 8.23223 14.0655C7.76339 14.5344 7.5 15.1703 7.5 15.8333C7.5 16.4964 7.76339 17.1322 8.23223 17.6011C8.70107 18.0699 9.33696 18.3333 10 18.3333C10.663 18.3333 11.2989 18.0699 11.7678 17.6011C12.2366 17.1322 12.5 16.4964 12.5 15.8333C12.5 15.1703 12.2366 14.5344 11.7678 14.0655C11.2989 13.5967 10.663 13.3333 10 13.3333Z" fill="#07978E"/>
<path d="M33.3333 5H6.66667C5.75 5 5 5.75 5 6.66667V9.16667H35V6.66667C35 5.75 34.25 5 33.3333 5ZM17.5 9.16667H22.5V15.8333H17.5V9.16667ZM30.8333 9.16667H26.6667L27.5 15.8333H32.5L30.8333 9.16667ZM9.16667 9.16667H13.3333L12.5 15.8333H7.5L9.16667 9.16667Z" fill="#08B4A9"/>
<path d="M25 13.3333C24.337 13.3333 23.7011 13.5967 23.2322 14.0655C22.7634 14.5344 22.5 15.1703 22.5 15.8333C22.5 16.4964 22.7634 17.1322 23.2322 17.6011C23.7011 18.0699 24.337 18.3333 25 18.3333C25.663 18.3333 26.2989 18.0699 26.7678 17.6011C27.2366 17.1322 27.5 16.4964 27.5 15.8333C27.5 15.1703 27.2366 14.5344 26.7678 14.0655C26.2989 13.5967 25.663 13.3333 25 13.3333ZM37.5 15.8333C37.5 17.25 36.4167 18.3333 35 18.3333C33.5833 18.3333 32.5 17.25 32.5 15.8333C32.5 14.4166 33.5833 13.3333 35 13.3333L37.5 15.8333ZM15 13.3333C14.337 13.3333 13.7011 13.5967 13.2322 14.0655C12.7634 14.5344 12.5 15.1703 12.5 15.8333C12.5 16.4964 12.7634 17.1322 13.2322 17.6011C13.7011 18.0699 14.337 18.3333 15 18.3333C15.663 18.3333 16.2989 18.0699 16.7678 17.6011C17.2366 17.1322 17.5 16.4964 17.5 15.8333C17.5 15.1703 17.2366 14.5344 16.7678 14.0655C16.2989 13.5967 15.663 13.3333 15 13.3333ZM2.5 15.8333C2.5 17.25 3.58333 18.3333 5 18.3333C6.41667 18.3333 7.5 17.25 7.5 15.8333C7.5 14.4166 6.41667 13.3333 5 13.3333L2.5 15.8333Z" fill="#F0BE0F"/>
<path d="M26.6667 9.16669H22.5V15.8334H27.5L26.6667 9.16669ZM35 9.16669H30.8333L32.5 15.8334H37.5L35 9.16669ZM13.3333 9.16669H17.5V15.8334H12.5L13.3333 9.16669ZM5 9.16669H9.16667L7.5 15.8334H2.5L5 9.16669Z" fill="#FBC918"/>
</svg>
