<svg width="40" height="40" viewBox="0 0 40 40" fill="none" xmlns="http://www.w3.org/2000/svg">
<g clip-path="url(#clip0_666_53244)">
<path fill-rule="evenodd" clip-rule="evenodd" d="M18.3242 3.30371C10.0576 3.30371 3.32422 10.0371 3.32422 18.3037C3.32422 26.5703 10.0576 33.3037 18.3242 33.3037C21.609 33.3037 24.6422 32.2293 27.1165 30.4293L34.1575 37.4703L37.4908 34.137L30.4498 27.096C32.2498 24.6217 33.3242 21.5883 33.3242 18.3037C33.3242 10.0371 26.5908 3.30371 18.3242 3.30371ZM18.3242 6.63704C24.791 6.63704 29.9908 11.837 29.9908 18.3037C29.9908 24.7705 24.791 29.9703 18.3242 29.9703C11.8575 29.9703 6.65755 24.7705 6.65755 18.3037C6.65755 11.837 11.8575 6.63704 18.3242 6.63704ZM13.6042 12.3792L9.6556 18.3037L13.6042 24.2282L16.3776 22.3792L13.6628 18.3037L16.3776 14.2282L13.6042 12.3792ZM23.0443 12.3792L20.2708 14.2282L22.989 18.3037L20.2708 22.3792L23.0443 24.2282L26.9962 18.3037L23.0443 12.3792Z" fill="#1E2022"/>
</g>
<defs>
<clipPath id="clip0_666_53244">
<rect width="40" height="40" fill="white"/>
</clipPath>
</defs>
</svg>
