<svg width="40" height="40" viewBox="0 0 40 40" fill="none" xmlns="http://www.w3.org/2000/svg">
<g clip-path="url(#clip0_666_53248)">
<path fill-rule="evenodd" clip-rule="evenodd" d="M8.33333 5C6.50958 5 5 6.50958 5 8.33333V31.6667C5 33.4905 6.50958 35 8.33333 35H31.6667C33.4905 35 35 33.4905 35 31.6667V11.6667L28.3333 5H8.33333ZM8.33333 8.33333H26.9532L31.6667 13.0469V31.6667H8.33333V8.33333ZM11.6667 11.6667V16.6667H25V11.6667H11.6667ZM19.1667 20C16.8655 20 15 21.8655 15 24.1667C15 26.4678 16.8655 28.3333 19.1667 28.3333C21.4678 28.3333 23.3333 26.4678 23.3333 24.1667C23.3333 21.8655 21.4678 20 19.1667 20Z" fill="#1E2022"/>
</g>
<defs>
<clipPath id="clip0_666_53248">
<rect width="40" height="40" fill="white"/>
</clipPath>
</defs>
</svg>
