<svg width="40" height="40" viewBox="0 0 40 40" fill="none" xmlns="http://www.w3.org/2000/svg">
<g clip-path="url(#clip0_666_53252)">
<path fill-rule="evenodd" clip-rule="evenodd" d="M30 3.33301C27.2583 3.33301 25 5.59132 25 8.33301C25 8.65126 25.0363 8.96154 25.0943 9.26399L13.2031 16.2008C12.3309 15.4628 11.2201 14.9997 10 14.9997C7.25832 14.9997 5 17.258 5 19.9997C5 22.7413 7.25832 24.9997 10 24.9997C11.2201 24.9997 12.3309 24.5365 13.2031 23.7985L25.0943 30.7322C25.036 31.0355 25 31.347 25 31.6663C25 34.408 27.2583 36.6663 30 36.6663C32.7417 36.6663 35 34.408 35 31.6663C35 28.9247 32.7417 26.6663 30 26.6663C28.7792 26.6663 27.6693 27.1318 26.7968 27.8708L14.9056 20.9307C14.9637 20.6282 15 20.318 15 19.9997C15 19.6813 14.9637 19.3712 14.9056 19.0687L26.7968 12.1318C27.6692 12.8699 28.7798 13.333 30 13.333C32.7417 13.333 35 11.0747 35 8.33301C35 5.59132 32.7417 3.33301 30 3.33301ZM30 6.66634C30.9402 6.66634 31.6667 7.39279 31.6667 8.33301C31.6667 9.27322 30.9402 9.99967 30 9.99967C29.0598 9.99967 28.3333 9.27322 28.3333 8.33301C28.3333 7.39279 29.0598 6.66634 30 6.66634ZM10 18.333C10.9402 18.333 11.6667 19.0595 11.6667 19.9997C11.6667 20.9398 10.9402 21.6663 10 21.6663C9.05978 21.6663 8.33333 20.9398 8.33333 19.9997C8.33333 19.0595 9.05978 18.333 10 18.333ZM30 29.9997C30.9402 29.9997 31.6667 30.7262 31.6667 31.6663C31.6667 32.6065 30.9402 33.333 30 33.333C29.0598 33.333 28.3333 32.6065 28.3333 31.6663C28.3333 30.7262 29.0598 29.9997 30 29.9997Z" fill="#1E2022"/>
</g>
<defs>
<clipPath id="clip0_666_53252">
<rect width="40" height="40" fill="white"/>
</clipPath>
</defs>
</svg>
