<svg width="40" height="40" viewBox="0 0 40 40" fill="none" xmlns="http://www.w3.org/2000/svg">
<g clip-path="url(#clip0_666_53256)">
<path fill-rule="evenodd" clip-rule="evenodd" d="M16.3333 3C15.4133 3 14.6667 3.74667 14.6667 4.66667V6.33333H3V9.66667H14.6667V11.3333C14.6667 12.2533 15.4133 13 16.3333 13H18C18.92 13 19.6667 12.2533 19.6667 11.3333V4.66667C19.6667 3.74667 18.92 3 18 3H16.3333ZM23 6.33333V9.66667H36.3333V6.33333H23ZM24.6667 14.6667C23.7467 14.6667 23 15.4133 23 16.3333V18H3V21.3333H23V23C23 23.92 23.7467 24.6667 24.6667 24.6667H26.3333C27.2533 24.6667 28 23.92 28 23V16.3333C28 15.4133 27.2533 14.6667 26.3333 14.6667H24.6667ZM31.3333 18V21.3333H36.3333V18H31.3333ZM8 26.3333C7.08 26.3333 6.33333 27.08 6.33333 28V29.6667H3V33H6.33333V34.6667C6.33333 35.5867 7.08 36.3333 8 36.3333H9.66667C10.5867 36.3333 11.3333 35.5867 11.3333 34.6667V28C11.3333 27.08 10.5867 26.3333 9.66667 26.3333H8ZM14.6667 29.6667V33H36.3333V29.6667H14.6667Z" fill="#1E2022"/>
</g>
<defs>
<clipPath id="clip0_666_53256">
<rect width="40" height="40" fill="white"/>
</clipPath>
</defs>
</svg>
