<svg width="24" height="24" viewBox="0 0 24 24" fill="none" xmlns="http://www.w3.org/2000/svg"><circle cx="12" cy="12" r="12" fill="white"/><path d="M17.7143 20H13.9048V18.4762C13.9048 18.0571 13.5619 17.7143 13.1429 17.7143C12.7238 17.7143 12.381 18.0571 12.381 18.4762V20H8.57143C7.31429 20 6.28571 18.9714 6.28571 17.7143V15.4286C5.02857 15.4286 4 14.4 4 13.1429C4 11.8857 5.02857 10.8571 6.28571 10.8571V8.57143C6.28571 7.31429 7.31429 6.28571 8.57143 6.28571H10.8571C10.8571 5.02857 11.8857 4 13.1429 4C14.4 4 15.4286 5.02857 15.4286 6.28571H17.7143C18.9714 6.28571 20 7.31429 20 8.57143V12.381H18.4762C18.0571 12.381 17.7143 12.7238 17.7143 13.1429C17.7143 13.5619 18.0571 13.9048 18.4762 13.9048H20V17.7143C20 18.9714 18.9714 20 17.7143 20ZM15.4286 18.4762H17.7143C18.1333 18.4762 18.4762 18.1333 18.4762 17.7143V15.4286C17.219 15.4286 16.1905 14.4 16.1905 13.1429C16.1905 11.8857 17.219 10.8571 18.4762 10.8571V8.57143C18.4762 8.15238 18.1333 7.80952 17.7143 7.80952H13.9048V6.28571C13.9048 5.86667 13.5619 5.52381 13.1429 5.52381C12.7238 5.52381 12.381 5.86667 12.381 6.28571V7.80952H8.57143C8.15238 7.80952 7.80952 8.15238 7.80952 8.57143V12.381H6.28571C5.86667 12.381 5.52381 12.7238 5.52381 13.1429C5.52381 13.5619 5.86667 13.9048 6.28571 13.9048H7.80952V17.7143C7.80952 18.1333 8.15238 18.4762 8.57143 18.4762H10.8571C10.8571 17.219 11.8857 16.1905 13.1429 16.1905C14.4 16.1905 15.4286 17.219 15.4286 18.4762Z" fill="#6E7072"/></svg>