<svg width="132" height="25" viewBox="0 0 132 25" fill="none" xmlns="http://www.w3.org/2000/svg">
<path d="M45.0851 12.1467C45.0851 13.1124 44.9281 13.9904 44.5967 14.7805C44.2479 15.5882 43.7944 16.273 43.2188 16.8525C42.6432 17.4319 41.9455 17.8884 41.1432 18.2045C40.3409 18.5381 39.4688 18.6961 38.5269 18.6961C37.585 18.6961 36.7129 18.5381 35.928 18.2045C35.1257 17.8884 34.428 17.4319 33.8524 16.8525C33.2768 16.273 32.8233 15.5882 32.4919 14.7805C32.1605 13.9904 32.0035 13.1124 32.0035 12.1467C32.0035 11.1809 32.1605 10.2854 32.4919 9.47772C32.8233 8.68757 33.2768 8.00277 33.8524 7.42333C34.428 6.86145 35.1257 6.42247 35.928 6.10641C36.7129 5.79035 37.585 5.63232 38.5269 5.63232C39.4688 5.63232 40.3409 5.79035 41.1432 6.10641C41.9455 6.42247 42.6432 6.86145 43.2188 7.42333C43.7944 8.00277 44.2479 8.68757 44.5967 9.47772C44.9281 10.2854 45.0851 11.1809 45.0851 12.1467ZM43.2188 12.1467C43.2188 11.4619 43.1142 10.8298 42.8874 10.2152C42.6607 9.61819 42.3467 9.09143 41.9455 8.6349C41.5444 8.17836 41.0386 7.80963 40.4804 7.54624C39.8874 7.28286 39.242 7.15995 38.5269 7.15995C37.8118 7.15995 37.1664 7.28286 36.6083 7.54624C36.0327 7.80963 35.5443 8.17836 35.1431 8.6349C34.742 9.09143 34.428 9.61819 34.2012 10.2152C33.9745 10.8298 33.8698 11.4619 33.8698 12.1467C33.8698 12.8315 33.9745 13.4812 34.2012 14.0957C34.428 14.7103 34.742 15.237 35.1431 15.676C35.5443 16.1325 36.0327 16.4837 36.6083 16.7471C37.1838 17.0105 37.8118 17.1334 38.5269 17.1334C39.242 17.1334 39.8874 17.0105 40.463 16.7471C41.0386 16.4837 41.5444 16.1325 41.9455 15.676C42.3467 15.237 42.6607 14.7103 42.8874 14.0957C43.1142 13.4812 43.2188 12.8315 43.2188 12.1467Z" fill="#080A0C"/>
<path d="M48.2072 22.5983H46.5676V10.0613H48.1723V11.3606H48.2246C48.4863 10.9217 48.8874 10.5529 49.4107 10.2544C49.9165 9.97348 50.527 9.83301 51.2072 9.83301C51.8177 9.83301 52.3933 9.93836 52.8991 10.1666C53.3875 10.3949 53.841 10.6934 54.2073 11.0972C54.5736 11.5011 54.8526 11.9576 55.0445 12.4844C55.2364 13.0287 55.341 13.5906 55.341 14.2052C55.341 14.8197 55.2364 15.3816 55.0445 15.9259C54.8526 16.4703 54.5736 16.9268 54.2073 17.3307C53.841 17.7345 53.4049 18.033 52.8991 18.2613C52.3933 18.5071 51.8177 18.6125 51.1723 18.6125C50.5793 18.6125 50.0212 18.4895 49.4979 18.2262C48.9746 17.9628 48.556 17.6116 48.2595 17.1375H48.2072V22.5983ZM53.6491 14.2052C53.6491 13.8189 53.5968 13.4501 53.4747 13.0814C53.3526 12.7127 53.1782 12.3966 52.9514 12.1157C52.7247 11.8347 52.4282 11.6065 52.0968 11.4484C51.7479 11.2904 51.3468 11.2026 50.8933 11.2026C50.4747 11.2026 50.0909 11.2904 49.7595 11.4484C49.4107 11.6065 49.1142 11.8347 48.87 12.1157C48.6258 12.3966 48.4339 12.7127 48.3118 13.0814C48.1723 13.4501 48.1025 13.8189 48.1025 14.2227C48.1025 14.6266 48.1723 14.9953 48.3118 15.3641C48.4339 15.7328 48.6258 16.0489 48.87 16.3122C49.1142 16.5932 49.4107 16.8215 49.7595 16.9795C50.0909 17.1375 50.4747 17.2253 50.8933 17.2253C51.3468 17.2253 51.7479 17.1375 52.0968 16.9619C52.4282 16.8039 52.7247 16.5756 52.9514 16.2947C53.1782 16.0137 53.3526 15.6977 53.4747 15.3289C53.5968 14.9602 53.6491 14.5915 53.6491 14.2052Z" fill="#080A0C"/>
<path d="M62.8916 13.4853C62.8741 13.1516 62.8218 12.8531 62.7346 12.5546C62.63 12.2737 62.4904 12.0279 62.2986 11.8172C62.1067 11.6065 61.8625 11.4309 61.5834 11.308C61.2869 11.185 60.9555 11.1324 60.5718 11.1324C60.2229 11.1324 59.8915 11.185 59.595 11.308C59.2811 11.4309 59.0194 11.6065 58.7927 11.8172C58.5659 12.0279 58.3741 12.2737 58.2345 12.5546C58.0776 12.8531 57.9903 13.1516 57.9729 13.4853H62.8916ZM64.5486 14.1525V14.4334C64.5486 14.5212 64.5486 14.6266 64.5311 14.7144H57.9729C57.9903 15.0656 58.0601 15.3992 58.2171 15.6977C58.3566 16.0137 58.5485 16.2947 58.7927 16.5054C59.0369 16.7337 59.3159 16.9268 59.6473 17.0497C59.9613 17.1726 60.2927 17.2429 60.659 17.2429C61.2171 17.2429 61.7055 17.12 62.1067 16.8741C62.5079 16.6283 62.8393 16.3298 63.066 15.9786L64.2172 16.9092C63.7811 17.4887 63.2579 17.9277 62.6648 18.191C62.0544 18.472 61.3916 18.6125 60.659 18.6125C60.0311 18.6125 59.4555 18.5071 58.9148 18.2964C58.3741 18.0857 57.9206 17.7872 57.5369 17.4009C57.1531 17.0322 56.8566 16.5756 56.6299 16.0313C56.4031 15.487 56.2985 14.89 56.2985 14.2403C56.2985 13.5906 56.4031 12.9936 56.6299 12.4493C56.8392 11.905 57.1357 11.4484 57.5194 11.0621C57.9031 10.6758 58.3566 10.3773 58.8799 10.1491C59.4032 9.93836 59.9613 9.83301 60.5718 9.83301C61.1823 9.83301 61.723 9.93836 62.2288 10.1315C62.7172 10.3247 63.1358 10.6232 63.4846 10.9919C63.816 11.3606 64.0776 11.8172 64.2695 12.3439C64.4614 12.8883 64.5486 13.4853 64.5486 14.1525Z" fill="#080A0C"/>
<path d="M67.5172 10.0613C67.5346 10.272 67.5521 10.5178 67.5695 10.7636C67.587 11.027 67.587 11.2553 67.587 11.4309H67.6393C67.7439 11.2026 67.8835 10.9919 68.0753 10.7987C68.2498 10.6056 68.4591 10.4476 68.6858 10.2895C68.9126 10.1491 69.1742 10.0437 69.4533 9.95592C69.7323 9.86813 70.0289 9.83301 70.3254 9.83301C70.8661 9.83301 71.3196 9.9208 71.7033 10.0964C72.087 10.2895 72.401 10.5354 72.6626 10.8339C72.9242 11.1324 73.1161 11.5011 73.2382 11.905C73.3603 12.3088 73.4126 12.7478 73.4126 13.2219V18.3842H71.7731V13.7662C71.7731 13.4326 71.7556 13.099 71.7033 12.8005C71.651 12.502 71.5463 12.221 71.4068 11.9928C71.2672 11.7645 71.0754 11.5713 70.8312 11.4309C70.587 11.2904 70.273 11.2202 69.8893 11.2202C69.244 11.2202 68.7033 11.466 68.3021 11.9576C67.8835 12.4668 67.6742 13.1341 67.6742 13.9594V18.3842H66.0346V11.8523C66.0346 11.624 66.0346 11.3431 66.0172 10.9919C65.9997 10.6407 65.9823 10.3247 65.9648 10.0613H67.5172Z" fill="#080A0C"/>
<path d="M78.7363 15.8436H78.7712L81.6666 5.94043H83.5678L86.4457 15.8436H86.4806L89.2016 5.94043H91.033L87.4051 18.3721H85.6085L82.6085 8.38112H82.5736L79.5735 18.3721H77.777L74.149 5.94043H76.0154L78.7363 15.8436Z" fill="#080A0C"/>
<path d="M97.8839 13.4853C97.8664 13.1516 97.8141 12.8531 97.7269 12.5546C97.6222 12.2737 97.4827 12.0279 97.2908 11.8172C97.099 11.6065 96.8548 11.4309 96.5757 11.308C96.2792 11.185 95.9478 11.1324 95.5641 11.1324C95.2152 11.1324 94.8838 11.185 94.5873 11.308C94.2734 11.4309 94.0117 11.6065 93.785 11.8172C93.5582 12.0279 93.3664 12.2737 93.2268 12.5546C93.0699 12.8531 92.9827 13.1516 92.9652 13.4853H97.8839ZM99.5409 14.1525V14.4334C99.5409 14.5212 99.5409 14.6266 99.5234 14.7144H92.9652C92.9827 15.0656 93.0524 15.3992 93.2094 15.6977C93.3489 16.0137 93.5408 16.2947 93.785 16.5054C94.0292 16.7337 94.3083 16.9268 94.6397 17.0497C94.9536 17.1726 95.285 17.2429 95.6513 17.2429C96.2094 17.2429 96.6978 17.12 97.099 16.8741C97.5002 16.6283 97.8316 16.3298 98.0583 15.9786L99.2095 16.9092C98.7734 17.4887 98.2502 17.9277 97.6571 18.191C97.0467 18.472 96.3839 18.6125 95.6513 18.6125C95.0234 18.6125 94.4478 18.5071 93.9071 18.2964C93.3664 18.0857 92.9129 17.7872 92.5292 17.4009C92.1454 17.0322 91.8489 16.5756 91.6222 16.0313C91.3954 15.487 91.2908 14.89 91.2908 14.2403C91.2908 13.5906 91.3954 12.9936 91.6222 12.4493C91.8315 11.905 92.128 11.4484 92.5117 11.0621C92.8954 10.6758 93.3489 10.3773 93.8722 10.1491C94.3955 9.93836 94.9536 9.83301 95.5641 9.83301C96.1746 9.83301 96.7153 9.93836 97.2211 10.1315C97.7095 10.3247 98.1281 10.6232 98.4769 10.9919C98.8083 11.3606 99.0699 11.8172 99.2618 12.3439C99.4537 12.8883 99.5409 13.4853 99.5409 14.1525Z" fill="#080A0C"/>
<path d="M106.198 12.9936C106.198 12.379 106.006 11.905 105.639 11.6065C105.273 11.308 104.767 11.1675 104.157 11.1675C103.686 11.1675 103.25 11.2553 102.849 11.4309C102.43 11.624 102.081 11.8523 101.802 12.1332L100.93 11.0797C101.331 10.6934 101.837 10.3949 102.43 10.1666C103.006 9.93836 103.634 9.83301 104.314 9.83301C104.907 9.83301 105.413 9.9208 105.866 10.0788C106.302 10.2544 106.651 10.4827 106.93 10.7812C107.209 11.0797 107.418 11.4133 107.558 11.8172C107.698 12.221 107.767 12.6424 107.767 13.099V16.7337C107.767 17.0146 107.785 17.3131 107.802 17.6116C107.802 17.9277 107.837 18.191 107.889 18.3842H106.407C106.32 17.9803 106.267 17.594 106.267 17.1902H106.215C105.918 17.6292 105.535 17.9803 105.081 18.2262C104.61 18.472 104.07 18.5949 103.442 18.5949C103.11 18.5949 102.779 18.5598 102.43 18.472C102.064 18.3842 101.75 18.2262 101.453 18.033C101.157 17.8399 100.93 17.5765 100.738 17.2429C100.529 16.9092 100.442 16.5054 100.442 16.0313C100.442 15.3992 100.616 14.89 100.947 14.5212C101.279 14.1525 101.732 13.8716 102.273 13.6784C102.814 13.4853 103.442 13.3623 104.122 13.3097C104.802 13.257 105.5 13.2219 106.198 13.2219V12.9936ZM105.796 14.4159C105.395 14.4159 104.977 14.4334 104.541 14.4686C104.104 14.5037 103.703 14.5739 103.354 14.6793C102.988 14.7846 102.692 14.9426 102.465 15.1534C102.238 15.3641 102.116 15.645 102.116 15.9962C102.116 16.242 102.168 16.4527 102.273 16.6107C102.36 16.7688 102.5 16.9092 102.657 17.0146C102.814 17.12 103.006 17.1902 103.198 17.2253C103.389 17.278 103.599 17.2955 103.808 17.2955C104.575 17.2955 105.168 17.0673 105.587 16.5932C105.988 16.1367 106.198 15.5572 106.198 14.8549V14.4159H105.796Z" fill="#080A0C"/>
<path d="M113.642 18.383H111.863L108.497 10.0601H110.311L112.735 16.6095H112.77L115.212 10.0601H116.956L113.642 18.383Z" fill="#080A0C"/>
<path d="M123.79 13.4853C123.772 13.1516 123.72 12.8531 123.633 12.5546C123.528 12.2737 123.389 12.0279 123.197 11.8172C123.005 11.6065 122.761 11.4309 122.482 11.308C122.185 11.185 121.854 11.1324 121.47 11.1324C121.121 11.1324 120.79 11.185 120.493 11.308C120.179 11.4309 119.918 11.6065 119.691 11.8172C119.464 12.0279 119.272 12.2737 119.133 12.5546C118.976 12.8531 118.889 13.1516 118.871 13.4853H123.79ZM125.447 14.1525V14.4334C125.447 14.5212 125.447 14.6266 125.429 14.7144H118.871C118.889 15.0656 118.958 15.3992 119.115 15.6977C119.255 16.0137 119.447 16.2947 119.691 16.5054C119.935 16.7337 120.214 16.9268 120.546 17.0497C120.86 17.1726 121.191 17.2429 121.557 17.2429C122.115 17.2429 122.604 17.12 123.005 16.8741C123.406 16.6283 123.738 16.3298 123.964 15.9786L125.115 16.9092C124.679 17.4887 124.156 17.9277 123.563 18.191C122.953 18.472 122.29 18.6125 121.557 18.6125C120.929 18.6125 120.354 18.5071 119.813 18.2964C119.272 18.0857 118.819 17.7872 118.435 17.4009C118.051 17.0322 117.755 16.5756 117.528 16.0313C117.301 15.487 117.197 14.89 117.197 14.2403C117.197 13.5906 117.301 12.9936 117.528 12.4493C117.737 11.905 118.034 11.4484 118.418 11.0621C118.801 10.6758 119.255 10.3773 119.778 10.1491C120.301 9.93836 120.86 9.83301 121.47 9.83301C122.081 9.83301 122.621 9.93836 123.127 10.1315C123.615 10.3247 124.034 10.6232 124.383 10.9919C124.714 11.3606 124.976 11.8172 125.168 12.3439C125.36 12.8883 125.447 13.4853 125.447 14.1525Z" fill="#080A0C"/>
<path d="M126.933 11.8523C126.933 11.624 126.933 11.3431 126.915 10.9919C126.898 10.6407 126.881 10.3247 126.863 10.0613H128.416C128.433 10.272 128.45 10.5178 128.468 10.7812C128.485 11.0621 128.485 11.2904 128.485 11.466H128.538C128.764 10.9743 129.113 10.588 129.567 10.272C130.003 9.99104 130.509 9.83301 131.067 9.83301C131.328 9.83301 131.538 9.85057 131.712 9.90324L131.642 11.4309C131.416 11.3782 131.154 11.3431 130.892 11.3431C130.491 11.3431 130.16 11.4133 129.863 11.5538C129.567 11.7118 129.34 11.905 129.148 12.1508C128.956 12.3966 128.799 12.6776 128.712 12.9936C128.625 13.3272 128.572 13.6608 128.572 14.012V18.3842H126.933V11.8523Z" fill="#080A0C"/>
<path fill-rule="evenodd" clip-rule="evenodd" d="M20.145 19.6765C16.6034 23.7016 10.7257 24.6529 6.08793 21.9553C1.44788 19.2564 -0.670846 13.654 1.01611 8.55019L20.145 19.6765Z" fill="#FFA0B5"/>
<path fill-rule="evenodd" clip-rule="evenodd" d="M22.4127 8.55176C24.1019 13.6543 21.9809 19.258 17.3431 21.9556C12.7031 24.6545 6.82769 23.7018 3.28381 19.6781L22.4127 8.55176Z" fill="#FFA0B5"/>
<path fill-rule="evenodd" clip-rule="evenodd" d="M11.6943 14.7634L20.1264 19.6642C19.7194 20.1266 19.2819 20.5483 18.8193 20.9292C18.356 21.3096 17.8579 21.6568 17.3266 21.9655C16.8571 22.2384 16.3745 22.4736 15.8825 22.6726C14.5526 23.2082 13.1329 23.4832 11.7033 23.4851H11.6943H11.6852C10.256 23.4832 8.83593 23.2082 7.50597 22.6726C7.01396 22.4736 6.53139 22.2384 6.06191 21.9655C5.53065 21.6568 5.03246 21.3096 4.56916 20.9292C4.10658 20.5483 3.66907 20.1266 3.26245 19.6642L11.6943 14.7634Z" fill="#FF2052"/>
<path fill-rule="evenodd" clip-rule="evenodd" d="M11.6683 0.442383C18.0859 0.442383 23.2964 5.68776 23.2964 12.1483C23.2964 18.6088 18.0859 23.8542 11.6683 23.8542C5.25077 23.8542 0.0402832 18.6088 0.0402832 12.1483C0.0402832 5.68776 5.25077 0.442383 11.6683 0.442383ZM11.6683 1.61298C17.4443 1.61298 22.1336 6.33362 22.1336 12.1483C22.1336 17.963 17.4443 22.6836 11.6683 22.6836C5.89234 22.6836 1.20308 17.963 1.20308 12.1483C1.20308 6.33362 5.89234 1.61298 11.6683 1.61298Z" fill="#FF2052"/>
</svg>
